<mxfile host="app.diagrams.net" modified="2021-01-04T04:53:47.034Z" agent="5.0 (Windows NT 10.0; Win64; x64) AppleWebKit/537.36 (KHTML, like Gecko) Chrome/87.0.4280.88 Safari/537.36" etag="NRZNQBtMwGnNLGR8nAQE" version="14.1.1" type="github" pages="8">
  <diagram id="MRGuz7a_V_mHkZW8NRdx" name="Page-7">
    <mxGraphModel dx="1185" dy="662" grid="1" gridSize="10" guides="1" tooltips="1" connect="1" arrows="1" fold="1" page="1" pageScale="1" pageWidth="1100" pageHeight="850" math="0" shadow="0">
      <root>
        <mxCell id="TGdOWMJafGkxJl8DrA9t-0" />
        <mxCell id="TGdOWMJafGkxJl8DrA9t-1" parent="TGdOWMJafGkxJl8DrA9t-0" />
        <mxCell id="TGdOWMJafGkxJl8DrA9t-3" value="&lt;font style=&quot;font-size: 30px&quot; color=&quot;#ff1605&quot;&gt;&lt;b&gt;2021&lt;/b&gt;&lt;/font&gt;" style="text;html=1;align=center;verticalAlign=middle;resizable=0;points=[];autosize=1;" vertex="1" parent="TGdOWMJafGkxJl8DrA9t-1">
          <mxGeometry x="9" y="12" width="80" height="30" as="geometry" />
        </mxCell>
        <mxCell id="TGdOWMJafGkxJl8DrA9t-4" value="&lt;font style=&quot;font-size: 17px&quot;&gt;&lt;b&gt;Yanvar&lt;/b&gt;&lt;/font&gt;" style="text;html=1;align=center;verticalAlign=middle;resizable=0;points=[];autosize=1;" vertex="1" parent="TGdOWMJafGkxJl8DrA9t-1">
          <mxGeometry x="120" y="59" width="70" height="20" as="geometry" />
        </mxCell>
        <mxCell id="TGdOWMJafGkxJl8DrA9t-5" value="&lt;font style=&quot;font-size: 17px&quot;&gt;&lt;b&gt;Fevral&lt;/b&gt;&lt;/font&gt;" style="text;html=1;align=center;verticalAlign=middle;resizable=0;points=[];autosize=1;" vertex="1" parent="TGdOWMJafGkxJl8DrA9t-1">
          <mxGeometry x="210" y="59" width="70" height="20" as="geometry" />
        </mxCell>
        <mxCell id="TGdOWMJafGkxJl8DrA9t-6" value="&lt;font style=&quot;font-size: 17px&quot;&gt;&lt;b&gt;Aprel&lt;/b&gt;&lt;/font&gt;" style="text;html=1;align=center;verticalAlign=middle;resizable=0;points=[];autosize=1;" vertex="1" parent="TGdOWMJafGkxJl8DrA9t-1">
          <mxGeometry x="370" y="59" width="60" height="20" as="geometry" />
        </mxCell>
        <mxCell id="TGdOWMJafGkxJl8DrA9t-7" value="&lt;span style=&quot;font-size: 17px&quot;&gt;&lt;b&gt;Mart&lt;/b&gt;&lt;/span&gt;" style="text;html=1;align=center;verticalAlign=middle;resizable=0;points=[];autosize=1;" vertex="1" parent="TGdOWMJafGkxJl8DrA9t-1">
          <mxGeometry x="300" y="59" width="50" height="20" as="geometry" />
        </mxCell>
        <mxCell id="TGdOWMJafGkxJl8DrA9t-8" value="&lt;font style=&quot;font-size: 17px&quot;&gt;&lt;b&gt;May&lt;/b&gt;&lt;/font&gt;" style="text;html=1;align=center;verticalAlign=middle;resizable=0;points=[];autosize=1;" vertex="1" parent="TGdOWMJafGkxJl8DrA9t-1">
          <mxGeometry x="450" y="59" width="50" height="20" as="geometry" />
        </mxCell>
        <mxCell id="TGdOWMJafGkxJl8DrA9t-9" value="&lt;span style=&quot;font-size: 17px&quot;&gt;&lt;b&gt;İyun&lt;/b&gt;&lt;/span&gt;" style="text;html=1;align=center;verticalAlign=middle;resizable=0;points=[];autosize=1;" vertex="1" parent="TGdOWMJafGkxJl8DrA9t-1">
          <mxGeometry x="510" y="59" width="50" height="20" as="geometry" />
        </mxCell>
        <mxCell id="TGdOWMJafGkxJl8DrA9t-10" value="&lt;font style=&quot;font-size: 17px&quot;&gt;&lt;b&gt;İyul&lt;/b&gt;&lt;/font&gt;" style="text;html=1;align=center;verticalAlign=middle;resizable=0;points=[];autosize=1;" vertex="1" parent="TGdOWMJafGkxJl8DrA9t-1">
          <mxGeometry x="580" y="59" width="40" height="20" as="geometry" />
        </mxCell>
        <mxCell id="TGdOWMJafGkxJl8DrA9t-11" value="&lt;font style=&quot;font-size: 17px&quot;&gt;&lt;b&gt;Avqust&lt;/b&gt;&lt;/font&gt;" style="text;html=1;align=center;verticalAlign=middle;resizable=0;points=[];autosize=1;" vertex="1" parent="TGdOWMJafGkxJl8DrA9t-1">
          <mxGeometry x="640" y="59" width="70" height="20" as="geometry" />
        </mxCell>
        <mxCell id="TGdOWMJafGkxJl8DrA9t-12" value="&lt;font style=&quot;font-size: 17px&quot;&gt;&lt;b&gt;Sentyabr&lt;/b&gt;&lt;/font&gt;" style="text;html=1;align=center;verticalAlign=middle;resizable=0;points=[];autosize=1;" vertex="1" parent="TGdOWMJafGkxJl8DrA9t-1">
          <mxGeometry x="720" y="59" width="90" height="20" as="geometry" />
        </mxCell>
        <mxCell id="TGdOWMJafGkxJl8DrA9t-13" value="&lt;font style=&quot;font-size: 17px&quot;&gt;&lt;b&gt;Oktyabr&lt;/b&gt;&lt;/font&gt;" style="text;html=1;align=center;verticalAlign=middle;resizable=0;points=[];autosize=1;" vertex="1" parent="TGdOWMJafGkxJl8DrA9t-1">
          <mxGeometry x="820" y="59" width="80" height="20" as="geometry" />
        </mxCell>
        <mxCell id="TGdOWMJafGkxJl8DrA9t-14" value="&lt;font style=&quot;font-size: 17px&quot;&gt;&lt;b&gt;Noyabr&lt;/b&gt;&lt;/font&gt;" style="text;html=1;align=center;verticalAlign=middle;resizable=0;points=[];autosize=1;" vertex="1" parent="TGdOWMJafGkxJl8DrA9t-1">
          <mxGeometry x="915" y="59" width="70" height="20" as="geometry" />
        </mxCell>
        <mxCell id="TGdOWMJafGkxJl8DrA9t-15" value="&lt;font style=&quot;font-size: 17px&quot;&gt;&lt;b&gt;Dekabr&lt;/b&gt;&lt;/font&gt;" style="text;html=1;align=center;verticalAlign=middle;resizable=0;points=[];autosize=1;" vertex="1" parent="TGdOWMJafGkxJl8DrA9t-1">
          <mxGeometry x="1010" y="59" width="70" height="20" as="geometry" />
        </mxCell>
        <mxCell id="TGdOWMJafGkxJl8DrA9t-16" value="&lt;font style=&quot;font-size: 17px&quot;&gt;&lt;b&gt;English&lt;/b&gt;&lt;/font&gt;" style="ellipse;whiteSpace=wrap;html=1;" vertex="1" parent="TGdOWMJafGkxJl8DrA9t-1">
          <mxGeometry x="20" y="173.9" width="80" height="80" as="geometry" />
        </mxCell>
        <mxCell id="TGdOWMJafGkxJl8DrA9t-19" value="&lt;font style=&quot;font-size: 17px&quot;&gt;&lt;b&gt;Sport&lt;br&gt;for my health&lt;br&gt;&lt;/b&gt;&lt;/font&gt;" style="ellipse;whiteSpace=wrap;html=1;" vertex="1" parent="TGdOWMJafGkxJl8DrA9t-1">
          <mxGeometry x="20" y="603" width="80" height="80" as="geometry" />
        </mxCell>
        <mxCell id="TGdOWMJafGkxJl8DrA9t-23" value="" style="startArrow=oval;startFill=0;startSize=7;endArrow=block;endFill=0;endSize=10;dashed=1;html=1;fontStyle=1;labelBorderColor=#00FFFF;fontSize=14;rounded=1;targetPerimeterSpacing=8;fillColor=#0050ef;strokeColor=#001DBC;jumpSize=12;" edge="1" parent="TGdOWMJafGkxJl8DrA9t-1">
          <mxGeometry width="100" relative="1" as="geometry">
            <mxPoint x="160" y="213.3100000000001" as="sourcePoint" />
            <mxPoint x="1052.0000000000014" y="213.89999999999978" as="targetPoint" />
          </mxGeometry>
        </mxCell>
        <mxCell id="TGdOWMJafGkxJl8DrA9t-52" value="&lt;b&gt;Everyday 5 words&lt;/b&gt;" style="edgeLabel;html=1;align=center;verticalAlign=middle;resizable=0;points=[];fontSize=14;" vertex="1" connectable="0" parent="TGdOWMJafGkxJl8DrA9t-23">
          <mxGeometry x="-0.8682" y="2" relative="1" as="geometry">
            <mxPoint x="32.18" y="-7.45" as="offset" />
          </mxGeometry>
        </mxCell>
        <mxCell id="TGdOWMJafGkxJl8DrA9t-53" value="&lt;b&gt;Every week 2 movie&lt;/b&gt;" style="edgeLabel;html=1;align=center;verticalAlign=middle;resizable=0;points=[];fontSize=14;" vertex="1" connectable="0" parent="TGdOWMJafGkxJl8DrA9t-23">
          <mxGeometry x="-0.5491" y="-2" relative="1" as="geometry">
            <mxPoint x="-110.18" y="-31.54" as="offset" />
          </mxGeometry>
        </mxCell>
        <mxCell id="TGdOWMJafGkxJl8DrA9t-24" value="" style="verticalLabelPosition=bottom;verticalAlign=top;html=1;shape=mxgraph.basic.tick;strokeColor=#0000CC;fillColor=#0000FF;" vertex="1" parent="TGdOWMJafGkxJl8DrA9t-1">
          <mxGeometry x="1040" y="167.9" width="35" height="40" as="geometry" />
        </mxCell>
        <mxCell id="TGdOWMJafGkxJl8DrA9t-25" value="" style="startArrow=oval;startFill=0;startSize=7;endArrow=block;endFill=0;endSize=10;dashed=1;html=1;fontStyle=1;labelBorderColor=#00FFFF;fontSize=14;rounded=1;targetPerimeterSpacing=8;fillColor=#0050ef;strokeColor=#001DBC;jumpSize=12;" edge="1" parent="TGdOWMJafGkxJl8DrA9t-1">
          <mxGeometry width="100" relative="1" as="geometry">
            <mxPoint x="160" y="419.31000000000006" as="sourcePoint" />
            <mxPoint x="1049.9999999999995" y="418.9" as="targetPoint" />
          </mxGeometry>
        </mxCell>
        <mxCell id="TGdOWMJafGkxJl8DrA9t-26" value="" style="verticalLabelPosition=bottom;verticalAlign=top;html=1;shape=mxgraph.basic.tick;strokeColor=#0000CC;fillColor=#0000FF;" vertex="1" parent="TGdOWMJafGkxJl8DrA9t-1">
          <mxGeometry x="1027.5" y="369.81" width="35" height="40" as="geometry" />
        </mxCell>
        <mxCell id="TGdOWMJafGkxJl8DrA9t-79" style="edgeStyle=orthogonalEdgeStyle;rounded=1;jumpSize=12;orthogonalLoop=1;jettySize=auto;html=1;targetPerimeterSpacing=8;fontSize=14;strokeColor=#0000CC;" edge="1" parent="TGdOWMJafGkxJl8DrA9t-1" source="TGdOWMJafGkxJl8DrA9t-27">
          <mxGeometry relative="1" as="geometry">
            <mxPoint x="1040" y="539.9" as="targetPoint" />
            <Array as="points">
              <mxPoint x="60" y="539.9" />
            </Array>
          </mxGeometry>
        </mxCell>
        <mxCell id="TGdOWMJafGkxJl8DrA9t-80" style="edgeStyle=orthogonalEdgeStyle;rounded=1;jumpSize=12;orthogonalLoop=1;jettySize=auto;html=1;targetPerimeterSpacing=8;strokeColor=#001DBC;fontSize=14;" edge="1" parent="TGdOWMJafGkxJl8DrA9t-1" source="TGdOWMJafGkxJl8DrA9t-27">
          <mxGeometry relative="1" as="geometry">
            <mxPoint x="150" y="419.89999999999975" as="targetPoint" />
          </mxGeometry>
        </mxCell>
        <mxCell id="TGdOWMJafGkxJl8DrA9t-27" value="&lt;font style=&quot;font-size: 17px&quot;&gt;&lt;b&gt;Job&lt;br&gt;Skills&lt;/b&gt;&lt;/font&gt;" style="ellipse;whiteSpace=wrap;html=1;" vertex="1" parent="TGdOWMJafGkxJl8DrA9t-1">
          <mxGeometry x="20" y="379.9" width="80" height="80" as="geometry" />
        </mxCell>
        <mxCell id="TGdOWMJafGkxJl8DrA9t-43" style="edgeStyle=orthogonalEdgeStyle;rounded=1;jumpSize=12;orthogonalLoop=1;jettySize=auto;html=1;targetPerimeterSpacing=8;strokeColor=#001DBC;fontSize=14;" edge="1" parent="TGdOWMJafGkxJl8DrA9t-1">
          <mxGeometry relative="1" as="geometry">
            <mxPoint x="160" y="210.9" as="targetPoint" />
            <mxPoint x="160" y="170.9000000000001" as="sourcePoint" />
          </mxGeometry>
        </mxCell>
        <mxCell id="TGdOWMJafGkxJl8DrA9t-41" value="&lt;font style=&quot;font-size: 16px&quot;&gt;&lt;b&gt;B1&lt;/b&gt;&lt;/font&gt;" style="rounded=1;whiteSpace=wrap;html=1;arcSize=40;fontColor=#000000;fillColor=#ffffc0;strokeColor=#ff0000;" vertex="1" parent="TGdOWMJafGkxJl8DrA9t-1">
          <mxGeometry x="130" y="140.9" width="60" height="30" as="geometry" />
        </mxCell>
        <mxCell id="TGdOWMJafGkxJl8DrA9t-45" style="edgeStyle=orthogonalEdgeStyle;rounded=1;jumpSize=12;orthogonalLoop=1;jettySize=auto;html=1;targetPerimeterSpacing=8;strokeColor=#001DBC;fontSize=14;" edge="1" parent="TGdOWMJafGkxJl8DrA9t-1" source="TGdOWMJafGkxJl8DrA9t-44">
          <mxGeometry relative="1" as="geometry">
            <mxPoint x="335" y="212.89999999999978" as="targetPoint" />
          </mxGeometry>
        </mxCell>
        <mxCell id="TGdOWMJafGkxJl8DrA9t-44" value="&lt;b&gt;&lt;font style=&quot;font-size: 16px&quot;&gt;B2&lt;/font&gt;&lt;/b&gt;" style="ellipse;html=1;shape=endState;fontSize=14;fillColor=#fff2cc;strokeColor=#0000FF;" vertex="1" parent="TGdOWMJafGkxJl8DrA9t-1">
          <mxGeometry x="310" y="122.9" width="50" height="50" as="geometry" />
        </mxCell>
        <mxCell id="TGdOWMJafGkxJl8DrA9t-46" style="edgeStyle=orthogonalEdgeStyle;rounded=1;jumpSize=12;orthogonalLoop=1;jettySize=auto;html=1;targetPerimeterSpacing=8;strokeColor=#001DBC;fontSize=14;" edge="1" parent="TGdOWMJafGkxJl8DrA9t-1" source="TGdOWMJafGkxJl8DrA9t-47">
          <mxGeometry relative="1" as="geometry">
            <mxPoint x="600" y="212.89999999999978" as="targetPoint" />
          </mxGeometry>
        </mxCell>
        <mxCell id="TGdOWMJafGkxJl8DrA9t-47" value="&lt;span style=&quot;font-size: 16px&quot;&gt;&lt;b&gt;C1&lt;/b&gt;&lt;/span&gt;" style="ellipse;html=1;shape=endState;fontSize=14;fillColor=#fff2cc;strokeColor=#0000FF;" vertex="1" parent="TGdOWMJafGkxJl8DrA9t-1">
          <mxGeometry x="575" y="122.9" width="50" height="50" as="geometry" />
        </mxCell>
        <mxCell id="TGdOWMJafGkxJl8DrA9t-48" style="edgeStyle=orthogonalEdgeStyle;rounded=1;jumpSize=12;orthogonalLoop=1;jettySize=auto;html=1;targetPerimeterSpacing=8;strokeColor=#001DBC;fontSize=14;" edge="1" parent="TGdOWMJafGkxJl8DrA9t-1" source="TGdOWMJafGkxJl8DrA9t-49">
          <mxGeometry relative="1" as="geometry">
            <mxPoint x="950" y="212.89999999999978" as="targetPoint" />
          </mxGeometry>
        </mxCell>
        <mxCell id="TGdOWMJafGkxJl8DrA9t-49" value="&lt;b&gt;&lt;font style=&quot;font-size: 16px&quot;&gt;C2&lt;/font&gt;&lt;/b&gt;" style="ellipse;html=1;shape=endState;fontSize=14;fillColor=#fff2cc;strokeColor=#0000FF;" vertex="1" parent="TGdOWMJafGkxJl8DrA9t-1">
          <mxGeometry x="925" y="122.9" width="50" height="50" as="geometry" />
        </mxCell>
        <mxCell id="TGdOWMJafGkxJl8DrA9t-54" value="&lt;b&gt;Everyday 5 words&lt;/b&gt;" style="edgeLabel;html=1;align=center;verticalAlign=middle;resizable=0;points=[];fontSize=14;" vertex="1" connectable="0" parent="TGdOWMJafGkxJl8DrA9t-1">
          <mxGeometry x="502.0048394138987" y="203.89890836884265" as="geometry" />
        </mxCell>
        <mxCell id="TGdOWMJafGkxJl8DrA9t-55" value="&lt;b&gt;Every week 2 movie&lt;/b&gt;" style="edgeLabel;html=1;align=center;verticalAlign=middle;resizable=0;points=[];fontSize=14;" vertex="1" connectable="0" parent="TGdOWMJafGkxJl8DrA9t-1">
          <mxGeometry x="501.99510371161045" y="183.90306468770896" as="geometry" />
        </mxCell>
        <mxCell id="TGdOWMJafGkxJl8DrA9t-56" value="&lt;b&gt;Everyday 5 words&lt;/b&gt;" style="edgeLabel;html=1;align=center;verticalAlign=middle;resizable=0;points=[];fontSize=14;" vertex="1" connectable="0" parent="TGdOWMJafGkxJl8DrA9t-1">
          <mxGeometry x="757.0048394138987" y="203.89890836884265" as="geometry" />
        </mxCell>
        <mxCell id="TGdOWMJafGkxJl8DrA9t-57" value="&lt;b&gt;Every week 2 movie&lt;/b&gt;" style="edgeLabel;html=1;align=center;verticalAlign=middle;resizable=0;points=[];fontSize=14;" vertex="1" connectable="0" parent="TGdOWMJafGkxJl8DrA9t-1">
          <mxGeometry x="756.9951037116105" y="183.90306468770896" as="geometry" />
        </mxCell>
        <mxCell id="TGdOWMJafGkxJl8DrA9t-58" style="edgeStyle=orthogonalEdgeStyle;rounded=1;jumpSize=12;orthogonalLoop=1;jettySize=auto;html=1;targetPerimeterSpacing=8;strokeColor=#001DBC;fontSize=14;" edge="1" parent="TGdOWMJafGkxJl8DrA9t-1">
          <mxGeometry relative="1" as="geometry">
            <mxPoint x="241" y="418.89999999999975" as="targetPoint" />
            <mxPoint x="241" y="383.9" as="sourcePoint" />
          </mxGeometry>
        </mxCell>
        <mxCell id="TGdOWMJafGkxJl8DrA9t-59" value="&lt;b&gt;&lt;font style=&quot;font-size: 14px&quot;&gt;Python&lt;/font&gt;&lt;/b&gt;" style="ellipse;html=1;shape=endState;fontSize=14;fillColor=#fff2cc;strokeColor=#0000FF;" vertex="1" parent="TGdOWMJafGkxJl8DrA9t-1">
          <mxGeometry x="212" y="330" width="58" height="52.9" as="geometry" />
        </mxCell>
        <mxCell id="TGdOWMJafGkxJl8DrA9t-60" value="&lt;b style=&quot;font-size: 16px&quot;&gt;&lt;span&gt;Improve&lt;br&gt;&lt;/span&gt;&lt;font style=&quot;font-size: 16px&quot;&gt;Myself&lt;/font&gt;&lt;/b&gt;" style="ellipse;whiteSpace=wrap;html=1;" vertex="1" parent="TGdOWMJafGkxJl8DrA9t-1">
          <mxGeometry x="20" y="740" width="80" height="80" as="geometry" />
        </mxCell>
        <mxCell id="TGdOWMJafGkxJl8DrA9t-61" style="edgeStyle=orthogonalEdgeStyle;rounded=1;jumpSize=12;orthogonalLoop=1;jettySize=auto;html=1;targetPerimeterSpacing=8;strokeColor=#001DBC;fontSize=14;" edge="1" parent="TGdOWMJafGkxJl8DrA9t-1" source="TGdOWMJafGkxJl8DrA9t-62">
          <mxGeometry relative="1" as="geometry">
            <mxPoint x="475" y="417.8099999999998" as="targetPoint" />
          </mxGeometry>
        </mxCell>
        <mxCell id="TGdOWMJafGkxJl8DrA9t-62" value="&lt;b&gt;&lt;font style=&quot;font-size: 13px&quot;&gt;SQL&lt;br&gt;Done&lt;br&gt;&lt;/font&gt;&lt;/b&gt;" style="ellipse;html=1;shape=endState;fontSize=14;fillColor=#fff2cc;strokeColor=#0000FF;" vertex="1" parent="TGdOWMJafGkxJl8DrA9t-1">
          <mxGeometry x="450" y="327.81" width="50" height="52.19" as="geometry" />
        </mxCell>
        <mxCell id="TGdOWMJafGkxJl8DrA9t-63" style="edgeStyle=orthogonalEdgeStyle;rounded=1;jumpSize=12;orthogonalLoop=1;jettySize=auto;html=1;targetPerimeterSpacing=8;strokeColor=#001DBC;fontSize=14;" edge="1" parent="TGdOWMJafGkxJl8DrA9t-1">
          <mxGeometry relative="1" as="geometry">
            <mxPoint x="158" y="415.9" as="targetPoint" />
            <mxPoint x="158" y="375.89999999999975" as="sourcePoint" />
          </mxGeometry>
        </mxCell>
        <mxCell id="TGdOWMJafGkxJl8DrA9t-64" value="&lt;font style=&quot;font-size: 13px&quot;&gt;&lt;b&gt;Start&lt;br&gt;Data Engineer&lt;br&gt;&lt;/b&gt;&lt;/font&gt;" style="rounded=1;whiteSpace=wrap;html=1;arcSize=50;fontColor=#000000;fillColor=#ffffc0;strokeColor=#ff0000;" vertex="1" parent="TGdOWMJafGkxJl8DrA9t-1">
          <mxGeometry x="110" y="329.9" width="90" height="45" as="geometry" />
        </mxCell>
        <mxCell id="TGdOWMJafGkxJl8DrA9t-65" value="" style="shape=curlyBracket;whiteSpace=wrap;html=1;rounded=1;strokeColor=#0000FF;fillColor=#0000FF;fontSize=14;rotation=-90;size=0.5;" vertex="1" parent="TGdOWMJafGkxJl8DrA9t-1">
          <mxGeometry x="192" y="399.9" width="20" height="80" as="geometry" />
        </mxCell>
        <mxCell id="TGdOWMJafGkxJl8DrA9t-66" value="&lt;b&gt;&lt;font color=&quot;#ff0000&quot;&gt;01.01.2021&amp;nbsp;&lt;/font&gt;&lt;br&gt;&lt;font color=&quot;#0000ff&quot;&gt;01.02.2021&lt;/font&gt;&lt;/b&gt;" style="text;html=1;align=center;verticalAlign=middle;resizable=0;points=[];autosize=1;fontSize=14;" vertex="1" parent="TGdOWMJafGkxJl8DrA9t-1">
          <mxGeometry x="157" y="444.9" width="90" height="40" as="geometry" />
        </mxCell>
        <mxCell id="TGdOWMJafGkxJl8DrA9t-69" style="edgeStyle=orthogonalEdgeStyle;rounded=1;jumpSize=12;orthogonalLoop=1;jettySize=auto;html=1;targetPerimeterSpacing=8;strokeColor=#001DBC;fontSize=14;" edge="1" parent="TGdOWMJafGkxJl8DrA9t-1">
          <mxGeometry relative="1" as="geometry">
            <mxPoint x="617" y="418.89999999999975" as="targetPoint" />
            <mxPoint x="617" y="383.9" as="sourcePoint" />
          </mxGeometry>
        </mxCell>
        <mxCell id="TGdOWMJafGkxJl8DrA9t-70" value="&lt;b style=&quot;font-size: 13px&quot;&gt;&lt;font style=&quot;font-size: 13px&quot;&gt;Big&lt;br&gt;data&lt;br&gt;start&lt;br&gt;&lt;/font&gt;&lt;/b&gt;" style="ellipse;html=1;shape=endState;fontSize=14;fillColor=#fff2cc;strokeColor=#FF0000;gradientColor=#F6FFA6;" vertex="1" parent="TGdOWMJafGkxJl8DrA9t-1">
          <mxGeometry x="581" y="321.9" width="69" height="60.1" as="geometry" />
        </mxCell>
        <mxCell id="TGdOWMJafGkxJl8DrA9t-76" value="" style="shape=curlyBracket;whiteSpace=wrap;html=1;rounded=1;strokeColor=#0000FF;fillColor=#0000FF;fontSize=14;rotation=-90;size=0.5;" vertex="1" parent="TGdOWMJafGkxJl8DrA9t-1">
          <mxGeometry x="380.13" y="349.92" width="20" height="179.95" as="geometry" />
        </mxCell>
        <mxCell id="TGdOWMJafGkxJl8DrA9t-77" value="&lt;b&gt;&lt;font color=&quot;#ff0000&quot;&gt;01.02.2021&amp;nbsp;&lt;/font&gt;&lt;br&gt;&lt;font color=&quot;#0000ff&quot;&gt;01.04.2021&lt;/font&gt;&lt;/b&gt;" style="text;html=1;align=center;verticalAlign=middle;resizable=0;points=[];autosize=1;fontSize=14;" vertex="1" parent="TGdOWMJafGkxJl8DrA9t-1">
          <mxGeometry x="340" y="444.9" width="90" height="40" as="geometry" />
        </mxCell>
        <mxCell id="TGdOWMJafGkxJl8DrA9t-81" value="" style="shape=curlyBracket;whiteSpace=wrap;html=1;rounded=1;strokeColor=#0000FF;fillColor=#0000FF;fontSize=14;rotation=-90;size=0.5;" vertex="1" parent="TGdOWMJafGkxJl8DrA9t-1">
          <mxGeometry x="239.5" y="151.4" width="20" height="165" as="geometry" />
        </mxCell>
        <mxCell id="TGdOWMJafGkxJl8DrA9t-82" value="&lt;b&gt;&lt;font color=&quot;#ff0000&quot;&gt;01.01.2021&amp;nbsp;&lt;/font&gt;&lt;br&gt;&lt;font color=&quot;#0000ff&quot;&gt;01.03.2021&lt;/font&gt;&lt;/b&gt;" style="text;html=1;align=center;verticalAlign=middle;resizable=0;points=[];autosize=1;fontSize=14;" vertex="1" parent="TGdOWMJafGkxJl8DrA9t-1">
          <mxGeometry x="212" y="244.9" width="90" height="40" as="geometry" />
        </mxCell>
        <mxCell id="TGdOWMJafGkxJl8DrA9t-83" value="" style="shape=curlyBracket;whiteSpace=wrap;html=1;rounded=1;strokeColor=#0000FF;fillColor=#0000FF;fontSize=14;rotation=-90;size=0.5;" vertex="1" parent="TGdOWMJafGkxJl8DrA9t-1">
          <mxGeometry x="461.57" y="106.1" width="20" height="255.62" as="geometry" />
        </mxCell>
        <mxCell id="TGdOWMJafGkxJl8DrA9t-84" value="&lt;b&gt;&lt;font color=&quot;#ff0000&quot;&gt;01.03.2021&amp;nbsp;&lt;/font&gt;&lt;br&gt;&lt;font color=&quot;#0000ff&quot;&gt;01.07.2021&lt;/font&gt;&lt;/b&gt;" style="text;html=1;align=center;verticalAlign=middle;resizable=0;points=[];autosize=1;fontSize=14;" vertex="1" parent="TGdOWMJafGkxJl8DrA9t-1">
          <mxGeometry x="426.57" y="244.9" width="90" height="40" as="geometry" />
        </mxCell>
        <mxCell id="TGdOWMJafGkxJl8DrA9t-86" value="" style="shape=curlyBracket;whiteSpace=wrap;html=1;rounded=1;strokeColor=#0000FF;fillColor=#0000FF;fontSize=14;rotation=-90;size=0.5;" vertex="1" parent="TGdOWMJafGkxJl8DrA9t-1">
          <mxGeometry x="771.1" y="70" width="20" height="327.81" as="geometry" />
        </mxCell>
        <mxCell id="TGdOWMJafGkxJl8DrA9t-87" value="&lt;b&gt;&lt;font color=&quot;#ff0000&quot;&gt;01.07.2021&amp;nbsp;&lt;/font&gt;&lt;br&gt;&lt;font color=&quot;#0000ff&quot;&gt;01.11.2021&lt;/font&gt;&lt;/b&gt;" style="text;html=1;align=center;verticalAlign=middle;resizable=0;points=[];autosize=1;fontSize=14;" vertex="1" parent="TGdOWMJafGkxJl8DrA9t-1">
          <mxGeometry x="736.1" y="244.9" width="90" height="40" as="geometry" />
        </mxCell>
        <mxCell id="TGdOWMJafGkxJl8DrA9t-109" value="&lt;b&gt;&lt;font style=&quot;font-size: 16px&quot;&gt;Automation Engineer / Electronic / PLC Programming&lt;/font&gt;&lt;/b&gt;" style="rounded=0;whiteSpace=wrap;html=1;strokeColor=#009900;fillColor=#FFFFFF;fontSize=14;" vertex="1" parent="TGdOWMJafGkxJl8DrA9t-1">
          <mxGeometry x="320" y="520" width="480" height="40" as="geometry" />
        </mxCell>
        <mxCell id="TGdOWMJafGkxJl8DrA9t-110" value="&lt;b&gt;&lt;font style=&quot;font-size: 16px&quot;&gt;Every morning drink water + 10 min gym&lt;/font&gt;&lt;/b&gt;" style="text;html=1;align=center;verticalAlign=middle;resizable=0;points=[];autosize=1;fontSize=14;" vertex="1" parent="TGdOWMJafGkxJl8DrA9t-1">
          <mxGeometry x="225" y="645" width="320" height="20" as="geometry" />
        </mxCell>
        <mxCell id="TGdOWMJafGkxJl8DrA9t-111" value="&lt;b&gt;&lt;font style=&quot;font-size: 16px&quot;&gt;Every week 2 time Gym/Body&lt;/font&gt;&lt;/b&gt;" style="text;html=1;align=center;verticalAlign=middle;resizable=0;points=[];autosize=1;fontSize=14;" vertex="1" parent="TGdOWMJafGkxJl8DrA9t-1">
          <mxGeometry x="661.1" y="645" width="240" height="20" as="geometry" />
        </mxCell>
        <mxCell id="TGdOWMJafGkxJl8DrA9t-116" value="" style="shape=curlyBracket;whiteSpace=wrap;html=1;rounded=1;strokeColor=#0000FF;fillColor=#0000FF;fontSize=14;rotation=-90;size=0.5;" vertex="1" parent="TGdOWMJafGkxJl8DrA9t-1">
          <mxGeometry x="585.5" y="228" width="20" height="872" as="geometry" />
        </mxCell>
        <mxCell id="TGdOWMJafGkxJl8DrA9t-122" style="edgeStyle=orthogonalEdgeStyle;rounded=1;jumpSize=12;orthogonalLoop=1;jettySize=auto;html=1;targetPerimeterSpacing=8;strokeColor=#001DBC;fontSize=14;" edge="1" parent="TGdOWMJafGkxJl8DrA9t-1">
          <mxGeometry relative="1" as="geometry">
            <mxPoint x="160" y="795.0000000000001" as="targetPoint" />
            <mxPoint x="160" y="755.0000000000001" as="sourcePoint" />
          </mxGeometry>
        </mxCell>
        <mxCell id="TGdOWMJafGkxJl8DrA9t-123" value="&lt;span style=&quot;font-size: 13px&quot;&gt;&lt;b&gt;Read 4&lt;br&gt;book&lt;br&gt;&lt;/b&gt;&lt;/span&gt;" style="rounded=1;whiteSpace=wrap;html=1;arcSize=40;fontColor=#000000;fillColor=#ffffc0;strokeColor=#ff0000;" vertex="1" parent="TGdOWMJafGkxJl8DrA9t-1">
          <mxGeometry x="130" y="725" width="60" height="30" as="geometry" />
        </mxCell>
        <mxCell id="TGdOWMJafGkxJl8DrA9t-126" style="edgeStyle=orthogonalEdgeStyle;rounded=1;jumpSize=12;orthogonalLoop=1;jettySize=auto;html=1;targetPerimeterSpacing=8;strokeColor=#001DBC;fontSize=14;" edge="1" parent="TGdOWMJafGkxJl8DrA9t-1" source="TGdOWMJafGkxJl8DrA9t-127">
          <mxGeometry relative="1" as="geometry">
            <mxPoint x="318" y="799.9999999999997" as="targetPoint" />
          </mxGeometry>
        </mxCell>
        <mxCell id="TGdOWMJafGkxJl8DrA9t-127" value="&lt;span style=&quot;font-size: 16px&quot;&gt;&lt;b&gt;Done&lt;/b&gt;&lt;/span&gt;" style="ellipse;html=1;shape=endState;fontSize=14;fillColor=#fff2cc;strokeColor=#0000FF;" vertex="1" parent="TGdOWMJafGkxJl8DrA9t-1">
          <mxGeometry x="293" y="710" width="50" height="50" as="geometry" />
        </mxCell>
        <mxCell id="TGdOWMJafGkxJl8DrA9t-128" value="" style="shape=curlyBracket;whiteSpace=wrap;html=1;rounded=1;strokeColor=#0000FF;fillColor=#0000FF;fontSize=14;rotation=-90;size=0.5;" vertex="1" parent="TGdOWMJafGkxJl8DrA9t-1">
          <mxGeometry x="232" y="740" width="20" height="160" as="geometry" />
        </mxCell>
        <mxCell id="TGdOWMJafGkxJl8DrA9t-131" value="&lt;b&gt;3 month&lt;/b&gt;" style="text;html=1;align=center;verticalAlign=middle;resizable=0;points=[];autosize=1;fontSize=14;" vertex="1" parent="TGdOWMJafGkxJl8DrA9t-1">
          <mxGeometry x="208.5" y="800" width="70" height="20" as="geometry" />
        </mxCell>
        <mxCell id="TGdOWMJafGkxJl8DrA9t-135" style="edgeStyle=orthogonalEdgeStyle;rounded=1;jumpSize=12;orthogonalLoop=1;jettySize=auto;html=1;targetPerimeterSpacing=8;strokeColor=#001DBC;fontSize=14;" edge="1" parent="TGdOWMJafGkxJl8DrA9t-1" source="TGdOWMJafGkxJl8DrA9t-136">
          <mxGeometry relative="1" as="geometry">
            <mxPoint x="813" y="420" as="targetPoint" />
            <Array as="points">
              <mxPoint x="813" y="420" />
            </Array>
          </mxGeometry>
        </mxCell>
        <mxCell id="TGdOWMJafGkxJl8DrA9t-136" value="&lt;b style=&quot;font-size: 13px&quot;&gt;&lt;font style=&quot;font-size: 13px&quot;&gt;Big &lt;br&gt;Data &lt;br&gt;Done&lt;/font&gt;&lt;/b&gt;" style="ellipse;html=1;shape=endState;fontSize=14;fillColor=#fff2cc;strokeColor=#0000FF;" vertex="1" parent="TGdOWMJafGkxJl8DrA9t-1">
          <mxGeometry x="780" y="319.9" width="65" height="59.9" as="geometry" />
        </mxCell>
        <mxCell id="TGdOWMJafGkxJl8DrA9t-137" value="" style="shape=curlyBracket;whiteSpace=wrap;html=1;rounded=1;strokeColor=#0000FF;fillColor=#0000FF;fontSize=14;rotation=-90;size=0.5;" vertex="1" parent="TGdOWMJafGkxJl8DrA9t-1">
          <mxGeometry x="704.05" y="339.85" width="20" height="200.1" as="geometry" />
        </mxCell>
        <mxCell id="TGdOWMJafGkxJl8DrA9t-138" value="&lt;b&gt;&lt;font color=&quot;#ff0000&quot;&gt;01.06.2021&amp;nbsp;&lt;/font&gt;&lt;br&gt;&lt;font color=&quot;#0000ff&quot;&gt;01.10.2021&lt;/font&gt;&lt;/b&gt;" style="text;html=1;align=center;verticalAlign=middle;resizable=0;points=[];autosize=1;fontSize=14;" vertex="1" parent="TGdOWMJafGkxJl8DrA9t-1">
          <mxGeometry x="667" y="444.9" width="90" height="40" as="geometry" />
        </mxCell>
        <mxCell id="TGdOWMJafGkxJl8DrA9t-139" value="&lt;b&gt;Learn and Practice&lt;/b&gt;" style="text;html=1;align=center;verticalAlign=middle;resizable=0;points=[];autosize=1;fontSize=14;" vertex="1" parent="TGdOWMJafGkxJl8DrA9t-1">
          <mxGeometry x="649" y="379.81" width="140" height="20" as="geometry" />
        </mxCell>
        <mxCell id="TGdOWMJafGkxJl8DrA9t-141" value="&lt;b&gt;Every Day 2 Hours&lt;/b&gt;" style="text;html=1;align=center;verticalAlign=middle;resizable=0;points=[];autosize=1;fontSize=14;" vertex="1" parent="TGdOWMJafGkxJl8DrA9t-1">
          <mxGeometry x="649" y="397.81" width="140" height="20" as="geometry" />
        </mxCell>
        <mxCell id="TGdOWMJafGkxJl8DrA9t-143" value="Before&lt;br&gt;sleep 30 - 40 min" style="text;html=1;align=center;verticalAlign=middle;resizable=0;points=[];autosize=1;fontSize=14;" vertex="1" parent="TGdOWMJafGkxJl8DrA9t-1">
          <mxGeometry x="180" y="760" width="120" height="40" as="geometry" />
        </mxCell>
        <mxCell id="TGdOWMJafGkxJl8DrA9t-144" value="" style="shape=crossbar;whiteSpace=wrap;html=1;rounded=1;strokeColor=#FF0000;fillColor=#FFFFFF;gradientColor=#F6FFA6;fontSize=14;" vertex="1" parent="TGdOWMJafGkxJl8DrA9t-1">
          <mxGeometry x="157" y="790" width="883" height="20" as="geometry" />
        </mxCell>
        <mxCell id="TGdOWMJafGkxJl8DrA9t-149" style="edgeStyle=orthogonalEdgeStyle;rounded=1;jumpSize=12;orthogonalLoop=1;jettySize=auto;html=1;targetPerimeterSpacing=8;strokeColor=#001DBC;fontSize=14;" edge="1" parent="TGdOWMJafGkxJl8DrA9t-1" source="TGdOWMJafGkxJl8DrA9t-150">
          <mxGeometry relative="1" as="geometry">
            <mxPoint x="305" y="419.8999999999997" as="targetPoint" />
          </mxGeometry>
        </mxCell>
        <mxCell id="TGdOWMJafGkxJl8DrA9t-150" value="&lt;b&gt;&lt;font style=&quot;font-size: 13px&quot;&gt;SQL&lt;br&gt;Start&lt;br&gt;&lt;/font&gt;&lt;/b&gt;" style="ellipse;html=1;shape=endState;fontSize=14;fillColor=#fff2cc;strokeColor=#FF1605;" vertex="1" parent="TGdOWMJafGkxJl8DrA9t-1">
          <mxGeometry x="280" y="329.9" width="50" height="52.19" as="geometry" />
        </mxCell>
        <mxCell id="TGdOWMJafGkxJl8DrA9t-151" value="&lt;b&gt;Learn and Practice&lt;/b&gt;" style="text;html=1;align=center;verticalAlign=middle;resizable=0;points=[];autosize=1;fontSize=14;" vertex="1" parent="TGdOWMJafGkxJl8DrA9t-1">
          <mxGeometry x="320" y="380" width="140" height="20" as="geometry" />
        </mxCell>
        <mxCell id="TGdOWMJafGkxJl8DrA9t-152" value="&lt;b&gt;Every Day 2 Hours&lt;/b&gt;" style="text;html=1;align=center;verticalAlign=middle;resizable=0;points=[];autosize=1;fontSize=14;" vertex="1" parent="TGdOWMJafGkxJl8DrA9t-1">
          <mxGeometry x="320" y="398" width="140" height="20" as="geometry" />
        </mxCell>
        <mxCell id="TGdOWMJafGkxJl8DrA9t-167" value="University Exams" style="swimlane;html=1;fontStyle=1;align=center;verticalAlign=middle;childLayout=stackLayout;horizontal=1;startSize=30;horizontalStack=0;resizeParent=0;resizeLast=1;container=0;fontColor=#000000;collapsible=0;rounded=1;arcSize=47;fillColor=#ffffc0;swimlaneFillColor=#ffffc0;dropTarget=0;strokeColor=#0000CC;" vertex="1" parent="TGdOWMJafGkxJl8DrA9t-1">
          <mxGeometry x="358" y="712" width="100" height="49.5" as="geometry" />
        </mxCell>
        <mxCell id="TGdOWMJafGkxJl8DrA9t-168" value="Travel" style="text;html=1;strokeColor=none;fillColor=none;align=center;verticalAlign=middle;spacingLeft=4;spacingRight=4;whiteSpace=wrap;overflow=hidden;rotatable=0;fontColor=#000000;" vertex="1" parent="TGdOWMJafGkxJl8DrA9t-167">
          <mxGeometry y="30" width="100" height="19.5" as="geometry" />
        </mxCell>
        <mxCell id="TGdOWMJafGkxJl8DrA9t-169" value="" style="edgeStyle=orthogonalEdgeStyle;html=1;verticalAlign=bottom;endArrow=open;endSize=8;fontSize=14;strokeColor=#0000CC;" edge="1" parent="TGdOWMJafGkxJl8DrA9t-1">
          <mxGeometry relative="1" as="geometry">
            <mxPoint x="408" y="799" as="targetPoint" />
            <mxPoint x="408" y="761.5" as="sourcePoint" />
            <Array as="points" />
          </mxGeometry>
        </mxCell>
        <mxCell id="TGdOWMJafGkxJl8DrA9t-170" value="" style="shape=curlyBracket;whiteSpace=wrap;html=1;rounded=1;strokeColor=#0000FF;fillColor=#0000FF;fontSize=14;rotation=-90;size=0.5;" vertex="1" parent="TGdOWMJafGkxJl8DrA9t-1">
          <mxGeometry x="399.38" y="766.25" width="20" height="107.5" as="geometry" />
        </mxCell>
        <mxCell id="TGdOWMJafGkxJl8DrA9t-171" value="&lt;b&gt;01 - 22.04.2021&lt;/b&gt;" style="text;html=1;align=center;verticalAlign=middle;resizable=0;points=[];autosize=1;fontSize=14;" vertex="1" parent="TGdOWMJafGkxJl8DrA9t-1">
          <mxGeometry x="355" y="800" width="110" height="20" as="geometry" />
        </mxCell>
        <mxCell id="TGdOWMJafGkxJl8DrA9t-172" style="edgeStyle=orthogonalEdgeStyle;rounded=1;jumpSize=12;orthogonalLoop=1;jettySize=auto;html=1;targetPerimeterSpacing=8;strokeColor=#001DBC;fontSize=14;" edge="1" parent="TGdOWMJafGkxJl8DrA9t-1">
          <mxGeometry relative="1" as="geometry">
            <mxPoint x="498" y="795" as="targetPoint" />
            <mxPoint x="498" y="755" as="sourcePoint" />
          </mxGeometry>
        </mxCell>
        <mxCell id="TGdOWMJafGkxJl8DrA9t-173" value="&lt;span style=&quot;font-size: 13px&quot;&gt;&lt;b&gt;Read 3&lt;br&gt;book&lt;br&gt;&lt;/b&gt;&lt;/span&gt;" style="rounded=1;whiteSpace=wrap;html=1;arcSize=40;fontColor=#000000;fillColor=#ffffc0;strokeColor=#ff0000;" vertex="1" parent="TGdOWMJafGkxJl8DrA9t-1">
          <mxGeometry x="468" y="725" width="60" height="30" as="geometry" />
        </mxCell>
        <mxCell id="TGdOWMJafGkxJl8DrA9t-174" style="edgeStyle=orthogonalEdgeStyle;rounded=1;jumpSize=12;orthogonalLoop=1;jettySize=auto;html=1;targetPerimeterSpacing=8;strokeColor=#001DBC;fontSize=14;" edge="1" parent="TGdOWMJafGkxJl8DrA9t-1" source="TGdOWMJafGkxJl8DrA9t-175">
          <mxGeometry relative="1" as="geometry">
            <mxPoint x="630" y="799.9999999999995" as="targetPoint" />
          </mxGeometry>
        </mxCell>
        <mxCell id="TGdOWMJafGkxJl8DrA9t-175" value="&lt;span style=&quot;font-size: 16px&quot;&gt;&lt;b&gt;Done&lt;/b&gt;&lt;/span&gt;" style="ellipse;html=1;shape=endState;fontSize=14;fillColor=#fff2cc;strokeColor=#0000FF;" vertex="1" parent="TGdOWMJafGkxJl8DrA9t-1">
          <mxGeometry x="605" y="710" width="50" height="50" as="geometry" />
        </mxCell>
        <mxCell id="TGdOWMJafGkxJl8DrA9t-176" value="" style="shape=curlyBracket;whiteSpace=wrap;html=1;rounded=1;strokeColor=#0000FF;fillColor=#0000FF;fontSize=14;rotation=-90;size=0.5;" vertex="1" parent="TGdOWMJafGkxJl8DrA9t-1">
          <mxGeometry x="542.5" y="767.5" width="20" height="105" as="geometry" />
        </mxCell>
        <mxCell id="TGdOWMJafGkxJl8DrA9t-177" value="&lt;b&gt;2 month&lt;/b&gt;" style="text;html=1;align=center;verticalAlign=middle;resizable=0;points=[];autosize=1;fontSize=14;" vertex="1" parent="TGdOWMJafGkxJl8DrA9t-1">
          <mxGeometry x="519.5" y="800" width="70" height="20" as="geometry" />
        </mxCell>
        <mxCell id="TGdOWMJafGkxJl8DrA9t-178" value="Before&lt;br&gt;sleep 30 - 40 min" style="text;html=1;align=center;verticalAlign=middle;resizable=0;points=[];autosize=1;fontSize=14;" vertex="1" parent="TGdOWMJafGkxJl8DrA9t-1">
          <mxGeometry x="504.5" y="760" width="120" height="40" as="geometry" />
        </mxCell>
        <mxCell id="TGdOWMJafGkxJl8DrA9t-181" style="edgeStyle=orthogonalEdgeStyle;rounded=1;jumpSize=12;orthogonalLoop=1;jettySize=auto;html=1;targetPerimeterSpacing=8;strokeColor=#001DBC;fontSize=14;" edge="1" parent="TGdOWMJafGkxJl8DrA9t-1">
          <mxGeometry relative="1" as="geometry">
            <mxPoint x="690" y="800" as="targetPoint" />
            <mxPoint x="690" y="760" as="sourcePoint" />
          </mxGeometry>
        </mxCell>
        <mxCell id="TGdOWMJafGkxJl8DrA9t-182" value="&lt;b&gt;&lt;font style=&quot;font-size: 12px&quot;&gt;Travel&lt;br&gt;&lt;/font&gt;Rest&lt;br&gt;&lt;/b&gt;" style="rounded=1;whiteSpace=wrap;html=1;arcSize=40;fontColor=#000000;fillColor=#ffffc0;strokeColor=#0000CC;" vertex="1" parent="TGdOWMJafGkxJl8DrA9t-1">
          <mxGeometry x="660" y="730" width="60" height="30" as="geometry" />
        </mxCell>
        <mxCell id="TGdOWMJafGkxJl8DrA9t-185" value="0" style="shape=curlyBracket;whiteSpace=wrap;html=1;rounded=1;strokeColor=#0000FF;fillColor=#0000FF;fontSize=14;rotation=-90;size=0.5;" vertex="1" parent="TGdOWMJafGkxJl8DrA9t-1">
          <mxGeometry x="679.75" y="790.75" width="20" height="58.5" as="geometry" />
        </mxCell>
        <mxCell id="TGdOWMJafGkxJl8DrA9t-186" value="&lt;font size=&quot;1&quot;&gt;&lt;b style=&quot;font-size: 11px&quot;&gt;01.07.2021&lt;/b&gt;&lt;/font&gt;" style="text;html=1;align=center;verticalAlign=middle;resizable=0;points=[];autosize=1;fontSize=14;" vertex="1" parent="TGdOWMJafGkxJl8DrA9t-1">
          <mxGeometry x="654" y="800" width="70" height="20" as="geometry" />
        </mxCell>
        <mxCell id="TGdOWMJafGkxJl8DrA9t-188" value="Data&lt;br&gt;Engineer" style="rhombus;whiteSpace=wrap;html=1;strokeColor=#0000CC;fillColor=#FFFFFF;gradientColor=#F6FFA6;fontSize=14;" vertex="1" parent="TGdOWMJafGkxJl8DrA9t-1">
          <mxGeometry x="960" y="337.81" width="80" height="80" as="geometry" />
        </mxCell>
        <mxCell id="TGdOWMJafGkxJl8DrA9t-189" value="İELTS" style="rhombus;whiteSpace=wrap;html=1;strokeColor=#0000CC;fillColor=#FFFFFF;gradientColor=#F6FFA6;fontSize=14;" vertex="1" parent="TGdOWMJafGkxJl8DrA9t-1">
          <mxGeometry x="976" y="133" width="80" height="80" as="geometry" />
        </mxCell>
        <mxCell id="TGdOWMJafGkxJl8DrA9t-191" value="" style="shape=ellipse;fillColor=#FF4081;strokeColor=none;shadow=1;aspect=fixed;fontSize=14;" vertex="1" parent="TGdOWMJafGkxJl8DrA9t-1">
          <mxGeometry x="522.5" y="364" width="36" height="36" as="geometry" />
        </mxCell>
        <mxCell id="TGdOWMJafGkxJl8DrA9t-192" value="" style="dashed=0;html=1;shape=mxgraph.gmdl.plus;strokeColor=#ffffff;strokeWidth=2;shadow=0;" vertex="1" parent="TGdOWMJafGkxJl8DrA9t-191">
          <mxGeometry x="12.857142857142858" y="12.857142857142858" width="10.285714285714286" height="10.285714285714286" as="geometry" />
        </mxCell>
        <mxCell id="TGdOWMJafGkxJl8DrA9t-193" value="&lt;b&gt;&lt;font style=&quot;font-size: 13px&quot;&gt;CERTİFİCATE&lt;/font&gt;&lt;/b&gt;" style="text;html=1;align=center;verticalAlign=middle;resizable=0;points=[];autosize=1;fontSize=14;" vertex="1" parent="TGdOWMJafGkxJl8DrA9t-1">
          <mxGeometry x="492.57" y="400" width="100" height="20" as="geometry" />
        </mxCell>
        <mxCell id="TGdOWMJafGkxJl8DrA9t-194" style="edgeStyle=orthogonalEdgeStyle;rounded=1;jumpSize=12;orthogonalLoop=1;jettySize=auto;html=1;targetPerimeterSpacing=8;strokeColor=#001DBC;fontSize=14;" edge="1" parent="TGdOWMJafGkxJl8DrA9t-1">
          <mxGeometry relative="1" as="geometry">
            <mxPoint x="162" y="640.0000000000001" as="targetPoint" />
            <mxPoint x="162" y="600.0000000000001" as="sourcePoint" />
          </mxGeometry>
        </mxCell>
        <mxCell id="TGdOWMJafGkxJl8DrA9t-195" value="&lt;font style=&quot;font-size: 16px&quot;&gt;&lt;b&gt;Low&lt;/b&gt;&lt;/font&gt;" style="rounded=1;whiteSpace=wrap;html=1;arcSize=40;fontColor=#000000;fillColor=#ffffc0;strokeColor=#ff0000;" vertex="1" parent="TGdOWMJafGkxJl8DrA9t-1">
          <mxGeometry x="132" y="570" width="60" height="30" as="geometry" />
        </mxCell>
        <mxCell id="TGdOWMJafGkxJl8DrA9t-198" value="Be&lt;br&gt;Strong" style="rhombus;whiteSpace=wrap;html=1;strokeColor=#0000CC;fillColor=#FFFFFF;gradientColor=#F6FFA6;fontSize=14;" vertex="1" parent="TGdOWMJafGkxJl8DrA9t-1">
          <mxGeometry x="960" y="560" width="80" height="80" as="geometry" />
        </mxCell>
        <mxCell id="TGdOWMJafGkxJl8DrA9t-199" value="" style="verticalLabelPosition=bottom;verticalAlign=top;html=1;shape=mxgraph.basic.tick;strokeColor=#0000CC;fillColor=#0000FF;" vertex="1" parent="TGdOWMJafGkxJl8DrA9t-1">
          <mxGeometry x="1027.5" y="593" width="35" height="40" as="geometry" />
        </mxCell>
        <mxCell id="TGdOWMJafGkxJl8DrA9t-200" value="" style="startArrow=oval;startFill=0;startSize=7;endArrow=block;endFill=0;endSize=10;dashed=1;html=1;fontStyle=1;labelBorderColor=#00FFFF;fontSize=14;rounded=1;targetPerimeterSpacing=8;fillColor=#0050ef;strokeColor=#001DBC;jumpSize=12;" edge="1" parent="TGdOWMJafGkxJl8DrA9t-1">
          <mxGeometry width="100" relative="1" as="geometry">
            <mxPoint x="159" y="642.99" as="sourcePoint" />
            <mxPoint x="1048.9999999999995" y="642.5800000000002" as="targetPoint" />
          </mxGeometry>
        </mxCell>
        <mxCell id="TGdOWMJafGkxJl8DrA9t-201" value="&lt;b&gt;&lt;font style=&quot;font-size: 16px&quot; color=&quot;#0000ff&quot;&gt;Noone and Nothing Can not Change my Goals&lt;/font&gt;&lt;/b&gt;" style="text;html=1;align=center;verticalAlign=middle;resizable=0;points=[];autosize=1;fontSize=14;" vertex="1" parent="TGdOWMJafGkxJl8DrA9t-1">
          <mxGeometry x="309" y="12" width="370" height="20" as="geometry" />
        </mxCell>
        <mxCell id="TGdOWMJafGkxJl8DrA9t-202" value="Get up morning 6 o&#39;clock" style="text;html=1;align=center;verticalAlign=middle;resizable=0;points=[];autosize=1;fontSize=14;gradientColor=#ffa500;fillColor=#ffcd28;strokeColor=#d79b00;" vertex="1" parent="TGdOWMJafGkxJl8DrA9t-1">
          <mxGeometry x="175" y="620" width="170" height="20" as="geometry" />
        </mxCell>
        <mxCell id="TGdOWMJafGkxJl8DrA9t-203" value="Eat natural foods" style="text;html=1;align=center;verticalAlign=middle;resizable=0;points=[];autosize=1;fontSize=14;gradientColor=#ffa500;fillColor=#ffcd28;strokeColor=#d79b00;" vertex="1" parent="TGdOWMJafGkxJl8DrA9t-1">
          <mxGeometry x="358" y="620" width="120" height="20" as="geometry" />
        </mxCell>
        <mxCell id="TGdOWMJafGkxJl8DrA9t-204" value="Drink water min 1.5 lt" style="text;html=1;align=center;verticalAlign=middle;resizable=0;points=[];autosize=1;fontSize=14;gradientColor=#ffa500;fillColor=#ffcd28;strokeColor=#d79b00;" vertex="1" parent="TGdOWMJafGkxJl8DrA9t-1">
          <mxGeometry x="495.57" y="620" width="150" height="20" as="geometry" />
        </mxCell>
        <mxCell id="TGdOWMJafGkxJl8DrA9t-205" value="Think before doing" style="text;html=1;align=center;verticalAlign=middle;resizable=0;points=[];autosize=1;fontSize=14;gradientColor=#ffa500;fillColor=#ffcd28;strokeColor=#d79b00;" vertex="1" parent="TGdOWMJafGkxJl8DrA9t-1">
          <mxGeometry x="665" y="620" width="130" height="20" as="geometry" />
        </mxCell>
        <mxCell id="TGdOWMJafGkxJl8DrA9t-206" value="Be far away stress" style="text;html=1;align=center;verticalAlign=middle;resizable=0;points=[];autosize=1;fontSize=14;gradientColor=#ffa500;fillColor=#ffcd28;strokeColor=#d79b00;" vertex="1" parent="TGdOWMJafGkxJl8DrA9t-1">
          <mxGeometry x="810" y="620" width="130" height="20" as="geometry" />
        </mxCell>
        <mxCell id="TGdOWMJafGkxJl8DrA9t-207" value="" style="shape=ellipse;fillColor=#FF4081;strokeColor=none;shadow=1;aspect=fixed;fontSize=14;" vertex="1" parent="TGdOWMJafGkxJl8DrA9t-1">
          <mxGeometry x="879.9300000000001" y="363" width="36" height="36" as="geometry" />
        </mxCell>
        <mxCell id="TGdOWMJafGkxJl8DrA9t-208" value="" style="dashed=0;html=1;shape=mxgraph.gmdl.plus;strokeColor=#ffffff;strokeWidth=2;shadow=0;" vertex="1" parent="TGdOWMJafGkxJl8DrA9t-207">
          <mxGeometry x="12.857142857142858" y="12.857142857142858" width="10.285714285714286" height="10.285714285714286" as="geometry" />
        </mxCell>
        <mxCell id="TGdOWMJafGkxJl8DrA9t-209" value="&lt;b&gt;&lt;font style=&quot;font-size: 13px&quot;&gt;CERTİFİCATE&lt;/font&gt;&lt;/b&gt;" style="text;html=1;align=center;verticalAlign=middle;resizable=0;points=[];autosize=1;fontSize=14;" vertex="1" parent="TGdOWMJafGkxJl8DrA9t-1">
          <mxGeometry x="850" y="399" width="100" height="20" as="geometry" />
        </mxCell>
        <mxCell id="TGdOWMJafGkxJl8DrA9t-210" style="edgeStyle=orthogonalEdgeStyle;rounded=1;jumpSize=12;orthogonalLoop=1;jettySize=auto;html=1;targetPerimeterSpacing=8;strokeColor=#001DBC;fontSize=14;" edge="1" parent="TGdOWMJafGkxJl8DrA9t-1">
          <mxGeometry relative="1" as="geometry">
            <mxPoint x="758.9300000000001" y="798" as="targetPoint" />
            <mxPoint x="758.9300000000001" y="758" as="sourcePoint" />
          </mxGeometry>
        </mxCell>
        <mxCell id="TGdOWMJafGkxJl8DrA9t-211" value="&lt;span style=&quot;font-size: 13px&quot;&gt;&lt;b&gt;Read 3&lt;br&gt;book&lt;br&gt;&lt;/b&gt;&lt;/span&gt;" style="rounded=1;whiteSpace=wrap;html=1;arcSize=40;fontColor=#000000;fillColor=#ffffc0;strokeColor=#ff0000;" vertex="1" parent="TGdOWMJafGkxJl8DrA9t-1">
          <mxGeometry x="728.9300000000001" y="728" width="60" height="30" as="geometry" />
        </mxCell>
        <mxCell id="TGdOWMJafGkxJl8DrA9t-212" style="edgeStyle=orthogonalEdgeStyle;rounded=1;jumpSize=12;orthogonalLoop=1;jettySize=auto;html=1;targetPerimeterSpacing=8;strokeColor=#001DBC;fontSize=14;" edge="1" parent="TGdOWMJafGkxJl8DrA9t-1">
          <mxGeometry relative="1" as="geometry">
            <mxPoint x="890.9300000000001" y="800.9999999999995" as="targetPoint" />
            <mxPoint x="890.9300000000003" y="761" as="sourcePoint" />
          </mxGeometry>
        </mxCell>
        <mxCell id="TGdOWMJafGkxJl8DrA9t-213" value="&lt;span style=&quot;font-size: 16px&quot;&gt;&lt;b&gt;Done&lt;/b&gt;&lt;/span&gt;" style="ellipse;html=1;shape=endState;fontSize=14;fillColor=#fff2cc;strokeColor=#0000FF;" vertex="1" parent="TGdOWMJafGkxJl8DrA9t-1">
          <mxGeometry x="865.9300000000001" y="713" width="50" height="50" as="geometry" />
        </mxCell>
        <mxCell id="TGdOWMJafGkxJl8DrA9t-214" value="" style="shape=curlyBracket;whiteSpace=wrap;html=1;rounded=1;strokeColor=#0000FF;fillColor=#0000FF;fontSize=14;rotation=-90;size=0.5;" vertex="1" parent="TGdOWMJafGkxJl8DrA9t-1">
          <mxGeometry x="816.4300000000001" y="770.5" width="20" height="105" as="geometry" />
        </mxCell>
        <mxCell id="TGdOWMJafGkxJl8DrA9t-215" value="&lt;b&gt;2 month&lt;/b&gt;" style="text;html=1;align=center;verticalAlign=middle;resizable=0;points=[];autosize=1;fontSize=14;" vertex="1" parent="TGdOWMJafGkxJl8DrA9t-1">
          <mxGeometry x="793.4300000000001" y="803" width="70" height="20" as="geometry" />
        </mxCell>
        <mxCell id="TGdOWMJafGkxJl8DrA9t-216" value="Before&lt;br&gt;sleep 30 - 40 min" style="text;html=1;align=center;verticalAlign=middle;resizable=0;points=[];autosize=1;fontSize=14;" vertex="1" parent="TGdOWMJafGkxJl8DrA9t-1">
          <mxGeometry x="765.4300000000001" y="763" width="120" height="40" as="geometry" />
        </mxCell>
        <mxCell id="TGdOWMJafGkxJl8DrA9t-217" value="University Exams" style="swimlane;html=1;fontStyle=1;align=center;verticalAlign=middle;childLayout=stackLayout;horizontal=1;startSize=30;horizontalStack=0;resizeParent=0;resizeLast=1;container=0;fontColor=#000000;collapsible=0;rounded=1;arcSize=47;fillColor=#ffffc0;swimlaneFillColor=#ffffc0;dropTarget=0;strokeColor=#0000CC;" vertex="1" parent="TGdOWMJafGkxJl8DrA9t-1">
          <mxGeometry x="928" y="719.12" width="100" height="49.5" as="geometry" />
        </mxCell>
        <mxCell id="TGdOWMJafGkxJl8DrA9t-218" value="Travel" style="text;html=1;strokeColor=none;fillColor=none;align=center;verticalAlign=middle;spacingLeft=4;spacingRight=4;whiteSpace=wrap;overflow=hidden;rotatable=0;fontColor=#000000;" vertex="1" parent="TGdOWMJafGkxJl8DrA9t-217">
          <mxGeometry y="30" width="100" height="19.5" as="geometry" />
        </mxCell>
        <mxCell id="TGdOWMJafGkxJl8DrA9t-219" value="" style="edgeStyle=orthogonalEdgeStyle;html=1;verticalAlign=bottom;endArrow=open;endSize=8;fontSize=14;strokeColor=#0000CC;" edge="1" parent="TGdOWMJafGkxJl8DrA9t-1">
          <mxGeometry relative="1" as="geometry">
            <mxPoint x="978" y="806.12" as="targetPoint" />
            <mxPoint x="978" y="768.62" as="sourcePoint" />
            <Array as="points" />
          </mxGeometry>
        </mxCell>
        <mxCell id="TGdOWMJafGkxJl8DrA9t-220" value="" style="shape=curlyBracket;whiteSpace=wrap;html=1;rounded=1;strokeColor=#0000FF;fillColor=#0000FF;fontSize=14;rotation=-90;size=0.5;" vertex="1" parent="TGdOWMJafGkxJl8DrA9t-1">
          <mxGeometry x="969.38" y="773.37" width="20" height="107.5" as="geometry" />
        </mxCell>
        <mxCell id="TGdOWMJafGkxJl8DrA9t-221" value="&lt;b&gt;10 - 11.2021&lt;/b&gt;" style="text;html=1;align=center;verticalAlign=middle;resizable=0;points=[];autosize=1;fontSize=14;" vertex="1" parent="TGdOWMJafGkxJl8DrA9t-1">
          <mxGeometry x="935" y="807.12" width="90" height="20" as="geometry" />
        </mxCell>
      </root>
    </mxGraphModel>
  </diagram>
  <diagram name="Page-1" id="19d8dcba-68ad-dc05-1034-9cf7b2a963f6">
    <mxGraphModel dx="322" dy="794" grid="1" gridSize="10" guides="1" tooltips="1" connect="1" arrows="1" fold="1" page="1" pageScale="1" pageWidth="1100" pageHeight="850" background="#ffffff" math="0" shadow="0">
      <root>
        <mxCell id="0" />
        <mxCell id="1" parent="0" />
        <mxCell id="fcYUik5gzwDAA3Q_JQfT-25" value="" style="edgeStyle=orthogonalEdgeStyle;rounded=0;orthogonalLoop=1;jettySize=auto;html=1;" edge="1" parent="1" source="fcYUik5gzwDAA3Q_JQfT-1" target="fcYUik5gzwDAA3Q_JQfT-2">
          <mxGeometry relative="1" as="geometry">
            <Array as="points">
              <mxPoint x="1585" y="150" />
              <mxPoint x="1585" y="150" />
            </Array>
          </mxGeometry>
        </mxCell>
        <mxCell id="fcYUik5gzwDAA3Q_JQfT-1" value="НАЧАЛО" style="ellipse;whiteSpace=wrap;html=1;" vertex="1" parent="1">
          <mxGeometry x="1530" y="50" width="110" height="70" as="geometry" />
        </mxCell>
        <mxCell id="fcYUik5gzwDAA3Q_JQfT-26" value="" style="edgeStyle=orthogonalEdgeStyle;rounded=0;orthogonalLoop=1;jettySize=auto;html=1;" edge="1" parent="1" source="fcYUik5gzwDAA3Q_JQfT-2" target="fcYUik5gzwDAA3Q_JQfT-8">
          <mxGeometry relative="1" as="geometry" />
        </mxCell>
        <mxCell id="fcYUik5gzwDAA3Q_JQfT-2" value="Вывод&lt;br&gt;Введите два числа" style="shape=parallelogram;perimeter=parallelogramPerimeter;whiteSpace=wrap;html=1;fixedSize=1;" vertex="1" parent="1">
          <mxGeometry x="1485" y="160" width="190" height="60" as="geometry" />
        </mxCell>
        <mxCell id="fcYUik5gzwDAA3Q_JQfT-27" value="" style="edgeStyle=orthogonalEdgeStyle;rounded=0;orthogonalLoop=1;jettySize=auto;html=1;" edge="1" parent="1" source="fcYUik5gzwDAA3Q_JQfT-8" target="fcYUik5gzwDAA3Q_JQfT-9">
          <mxGeometry relative="1" as="geometry" />
        </mxCell>
        <mxCell id="fcYUik5gzwDAA3Q_JQfT-8" value="ВВОД&lt;br&gt;a, b" style="shape=parallelogram;perimeter=parallelogramPerimeter;whiteSpace=wrap;html=1;fixedSize=1;" vertex="1" parent="1">
          <mxGeometry x="1520" y="260" width="120" height="60" as="geometry" />
        </mxCell>
        <mxCell id="fcYUik5gzwDAA3Q_JQfT-12" style="edgeStyle=orthogonalEdgeStyle;rounded=0;orthogonalLoop=1;jettySize=auto;html=1;" edge="1" parent="1" source="fcYUik5gzwDAA3Q_JQfT-9">
          <mxGeometry relative="1" as="geometry">
            <mxPoint x="1400" y="400" as="targetPoint" />
          </mxGeometry>
        </mxCell>
        <mxCell id="fcYUik5gzwDAA3Q_JQfT-13" style="edgeStyle=orthogonalEdgeStyle;rounded=0;orthogonalLoop=1;jettySize=auto;html=1;" edge="1" parent="1" source="fcYUik5gzwDAA3Q_JQfT-9">
          <mxGeometry relative="1" as="geometry">
            <mxPoint x="1760" y="400" as="targetPoint" />
          </mxGeometry>
        </mxCell>
        <mxCell id="fcYUik5gzwDAA3Q_JQfT-9" value="b &amp;lt;&amp;gt; 0" style="rhombus;whiteSpace=wrap;html=1;" vertex="1" parent="1">
          <mxGeometry x="1540" y="360" width="80" height="80" as="geometry" />
        </mxCell>
        <mxCell id="fcYUik5gzwDAA3Q_JQfT-10" value="" style="endArrow=classic;html=1;" edge="1" parent="1">
          <mxGeometry width="50" height="50" relative="1" as="geometry">
            <mxPoint x="1400" y="400" as="sourcePoint" />
            <mxPoint x="1400" y="510" as="targetPoint" />
          </mxGeometry>
        </mxCell>
        <mxCell id="fcYUik5gzwDAA3Q_JQfT-14" value="" style="endArrow=classic;html=1;" edge="1" parent="1">
          <mxGeometry width="50" height="50" relative="1" as="geometry">
            <mxPoint x="1760" y="400" as="sourcePoint" />
            <mxPoint x="1760" y="460" as="targetPoint" />
          </mxGeometry>
        </mxCell>
        <mxCell id="fcYUik5gzwDAA3Q_JQfT-20" style="edgeStyle=orthogonalEdgeStyle;rounded=0;orthogonalLoop=1;jettySize=auto;html=1;" edge="1" parent="1" source="fcYUik5gzwDAA3Q_JQfT-16">
          <mxGeometry relative="1" as="geometry">
            <mxPoint x="1560" y="760" as="targetPoint" />
            <Array as="points">
              <mxPoint x="1400" y="680" />
            </Array>
          </mxGeometry>
        </mxCell>
        <mxCell id="fcYUik5gzwDAA3Q_JQfT-16" value="ВЫВОД&lt;br&gt;Решений нет" style="shape=parallelogram;perimeter=parallelogramPerimeter;whiteSpace=wrap;html=1;fixedSize=1;" vertex="1" parent="1">
          <mxGeometry x="1340" y="511" width="120" height="60" as="geometry" />
        </mxCell>
        <mxCell id="fcYUik5gzwDAA3Q_JQfT-17" value="с = a / b" style="rounded=0;whiteSpace=wrap;html=1;" vertex="1" parent="1">
          <mxGeometry x="1710" y="460" width="120" height="60" as="geometry" />
        </mxCell>
        <mxCell id="fcYUik5gzwDAA3Q_JQfT-18" value="" style="endArrow=classic;html=1;" edge="1" parent="1">
          <mxGeometry width="50" height="50" relative="1" as="geometry">
            <mxPoint x="1760" y="520" as="sourcePoint" />
            <mxPoint x="1760" y="580" as="targetPoint" />
          </mxGeometry>
        </mxCell>
        <mxCell id="fcYUik5gzwDAA3Q_JQfT-22" style="edgeStyle=orthogonalEdgeStyle;rounded=0;orthogonalLoop=1;jettySize=auto;html=1;" edge="1" parent="1" source="fcYUik5gzwDAA3Q_JQfT-19">
          <mxGeometry relative="1" as="geometry">
            <mxPoint x="1560" y="760" as="targetPoint" />
            <Array as="points">
              <mxPoint x="1760" y="720" />
              <mxPoint x="1560" y="720" />
            </Array>
          </mxGeometry>
        </mxCell>
        <mxCell id="fcYUik5gzwDAA3Q_JQfT-19" value="ВЫВОД&lt;br&gt;c" style="shape=parallelogram;perimeter=parallelogramPerimeter;whiteSpace=wrap;html=1;fixedSize=1;" vertex="1" parent="1">
          <mxGeometry x="1700" y="580" width="120" height="60" as="geometry" />
        </mxCell>
        <mxCell id="fcYUik5gzwDAA3Q_JQfT-23" value="КОНЕЦ" style="ellipse;whiteSpace=wrap;html=1;" vertex="1" parent="1">
          <mxGeometry x="1510" y="760" width="100" height="70" as="geometry" />
        </mxCell>
      </root>
    </mxGraphModel>
  </diagram>
  <diagram id="0YVTVutsrHEn0GJt6SVs" name="Page-2">
    <mxGraphModel dx="1422" dy="794" grid="1" gridSize="10" guides="1" tooltips="1" connect="1" arrows="1" fold="1" page="1" pageScale="1" pageWidth="850" pageHeight="1100" math="0" shadow="0">
      <root>
        <mxCell id="RVVDo3r0u_AZWDxhqcoV-0" />
        <mxCell id="RVVDo3r0u_AZWDxhqcoV-1" parent="RVVDo3r0u_AZWDxhqcoV-0" />
        <mxCell id="7deRpIN1E9Ftxc1qv-1r-7" style="edgeStyle=orthogonalEdgeStyle;rounded=0;orthogonalLoop=1;jettySize=auto;html=1;entryX=0.5;entryY=0;entryDx=0;entryDy=0;" edge="1" parent="RVVDo3r0u_AZWDxhqcoV-1" source="7deRpIN1E9Ftxc1qv-1r-0" target="7deRpIN1E9Ftxc1qv-1r-1">
          <mxGeometry relative="1" as="geometry" />
        </mxCell>
        <mxCell id="7deRpIN1E9Ftxc1qv-1r-0" value="НАЧАЛО" style="ellipse;whiteSpace=wrap;html=1;" vertex="1" parent="RVVDo3r0u_AZWDxhqcoV-1">
          <mxGeometry x="350" width="100" height="70" as="geometry" />
        </mxCell>
        <mxCell id="7deRpIN1E9Ftxc1qv-1r-8" style="edgeStyle=orthogonalEdgeStyle;rounded=0;orthogonalLoop=1;jettySize=auto;html=1;entryX=0.5;entryY=0;entryDx=0;entryDy=0;" edge="1" parent="RVVDo3r0u_AZWDxhqcoV-1" source="7deRpIN1E9Ftxc1qv-1r-1" target="7deRpIN1E9Ftxc1qv-1r-2">
          <mxGeometry relative="1" as="geometry" />
        </mxCell>
        <mxCell id="7deRpIN1E9Ftxc1qv-1r-1" value="ВВОД&lt;br&gt;num" style="shape=parallelogram;perimeter=parallelogramPerimeter;whiteSpace=wrap;html=1;fixedSize=1;" vertex="1" parent="RVVDo3r0u_AZWDxhqcoV-1">
          <mxGeometry x="340" y="110" width="120" height="50" as="geometry" />
        </mxCell>
        <mxCell id="7deRpIN1E9Ftxc1qv-1r-9" style="edgeStyle=orthogonalEdgeStyle;rounded=0;orthogonalLoop=1;jettySize=auto;html=1;entryX=0.5;entryY=0;entryDx=0;entryDy=0;" edge="1" parent="RVVDo3r0u_AZWDxhqcoV-1" source="7deRpIN1E9Ftxc1qv-1r-2" target="7deRpIN1E9Ftxc1qv-1r-3">
          <mxGeometry relative="1" as="geometry" />
        </mxCell>
        <mxCell id="7deRpIN1E9Ftxc1qv-1r-2" value="a = num //&amp;nbsp; 100" style="rounded=0;whiteSpace=wrap;html=1;" vertex="1" parent="RVVDo3r0u_AZWDxhqcoV-1">
          <mxGeometry x="340" y="180" width="120" height="60" as="geometry" />
        </mxCell>
        <mxCell id="7deRpIN1E9Ftxc1qv-1r-10" style="edgeStyle=orthogonalEdgeStyle;rounded=0;orthogonalLoop=1;jettySize=auto;html=1;entryX=0.5;entryY=0;entryDx=0;entryDy=0;" edge="1" parent="RVVDo3r0u_AZWDxhqcoV-1" source="7deRpIN1E9Ftxc1qv-1r-3" target="7deRpIN1E9Ftxc1qv-1r-4">
          <mxGeometry relative="1" as="geometry" />
        </mxCell>
        <mxCell id="7deRpIN1E9Ftxc1qv-1r-3" value="b = num % 100 // 10" style="rounded=0;whiteSpace=wrap;html=1;" vertex="1" parent="RVVDo3r0u_AZWDxhqcoV-1">
          <mxGeometry x="340" y="270" width="120" height="60" as="geometry" />
        </mxCell>
        <mxCell id="7deRpIN1E9Ftxc1qv-1r-11" style="edgeStyle=orthogonalEdgeStyle;rounded=0;orthogonalLoop=1;jettySize=auto;html=1;entryX=0.5;entryY=0;entryDx=0;entryDy=0;" edge="1" parent="RVVDo3r0u_AZWDxhqcoV-1" source="7deRpIN1E9Ftxc1qv-1r-4" target="7deRpIN1E9Ftxc1qv-1r-5">
          <mxGeometry relative="1" as="geometry" />
        </mxCell>
        <mxCell id="7deRpIN1E9Ftxc1qv-1r-4" value="c = num % 10" style="rounded=0;whiteSpace=wrap;html=1;" vertex="1" parent="RVVDo3r0u_AZWDxhqcoV-1">
          <mxGeometry x="340" y="360" width="120" height="60" as="geometry" />
        </mxCell>
        <mxCell id="7deRpIN1E9Ftxc1qv-1r-12" style="edgeStyle=orthogonalEdgeStyle;rounded=0;orthogonalLoop=1;jettySize=auto;html=1;" edge="1" parent="RVVDo3r0u_AZWDxhqcoV-1" source="7deRpIN1E9Ftxc1qv-1r-5" target="7deRpIN1E9Ftxc1qv-1r-6">
          <mxGeometry relative="1" as="geometry" />
        </mxCell>
        <mxCell id="7deRpIN1E9Ftxc1qv-1r-5" value="summa = a + b + c&lt;br&gt;mult = a * b * c" style="rounded=0;whiteSpace=wrap;html=1;" vertex="1" parent="RVVDo3r0u_AZWDxhqcoV-1">
          <mxGeometry x="340" y="460" width="120" height="60" as="geometry" />
        </mxCell>
        <mxCell id="7deRpIN1E9Ftxc1qv-1r-6" value="ВЫВОД&lt;br&gt;summa&lt;br&gt;mult" style="shape=parallelogram;perimeter=parallelogramPerimeter;whiteSpace=wrap;html=1;fixedSize=1;" vertex="1" parent="RVVDo3r0u_AZWDxhqcoV-1">
          <mxGeometry x="340" y="560" width="120" height="60" as="geometry" />
        </mxCell>
      </root>
    </mxGraphModel>
  </diagram>
  <diagram id="ERX14wJXwn0JIg23myuY" name="Page-3">
    <mxGraphModel dx="1422" dy="794" grid="1" gridSize="10" guides="1" tooltips="1" connect="1" arrows="1" fold="1" page="1" pageScale="1" pageWidth="850" pageHeight="1100" math="0" shadow="0">
      <root>
        <mxCell id="XJ6JK2tIFhn-W2cwrTGe-0" />
        <mxCell id="XJ6JK2tIFhn-W2cwrTGe-1" parent="XJ6JK2tIFhn-W2cwrTGe-0" />
        <mxCell id="XJ6JK2tIFhn-W2cwrTGe-5" style="edgeStyle=orthogonalEdgeStyle;rounded=0;orthogonalLoop=1;jettySize=auto;html=1;entryX=0.5;entryY=0;entryDx=0;entryDy=0;" edge="1" parent="XJ6JK2tIFhn-W2cwrTGe-1" source="XJ6JK2tIFhn-W2cwrTGe-2" target="XJ6JK2tIFhn-W2cwrTGe-3">
          <mxGeometry relative="1" as="geometry" />
        </mxCell>
        <mxCell id="XJ6JK2tIFhn-W2cwrTGe-2" value="НАЧАЛО" style="ellipse;whiteSpace=wrap;html=1;" vertex="1" parent="XJ6JK2tIFhn-W2cwrTGe-1">
          <mxGeometry x="310" y="40" width="120" height="60" as="geometry" />
        </mxCell>
        <mxCell id="XJ6JK2tIFhn-W2cwrTGe-4" style="edgeStyle=orthogonalEdgeStyle;rounded=0;orthogonalLoop=1;jettySize=auto;html=1;" edge="1" parent="XJ6JK2tIFhn-W2cwrTGe-1" source="XJ6JK2tIFhn-W2cwrTGe-3">
          <mxGeometry relative="1" as="geometry">
            <mxPoint x="370" y="260" as="targetPoint" />
          </mxGeometry>
        </mxCell>
        <mxCell id="XJ6JK2tIFhn-W2cwrTGe-3" value="ВВОД&lt;br&gt;x: int (целое число)" style="shape=parallelogram;perimeter=parallelogramPerimeter;whiteSpace=wrap;html=1;fixedSize=1;" vertex="1" parent="XJ6JK2tIFhn-W2cwrTGe-1">
          <mxGeometry x="295" y="140" width="150" height="60" as="geometry" />
        </mxCell>
        <mxCell id="XJ6JK2tIFhn-W2cwrTGe-12" style="edgeStyle=orthogonalEdgeStyle;rounded=0;orthogonalLoop=1;jettySize=auto;html=1;" edge="1" parent="XJ6JK2tIFhn-W2cwrTGe-1" source="XJ6JK2tIFhn-W2cwrTGe-6" target="XJ6JK2tIFhn-W2cwrTGe-11">
          <mxGeometry relative="1" as="geometry" />
        </mxCell>
        <mxCell id="XJ6JK2tIFhn-W2cwrTGe-13" style="edgeStyle=orthogonalEdgeStyle;rounded=0;orthogonalLoop=1;jettySize=auto;html=1;" edge="1" parent="XJ6JK2tIFhn-W2cwrTGe-1" source="XJ6JK2tIFhn-W2cwrTGe-6">
          <mxGeometry relative="1" as="geometry">
            <mxPoint x="220" y="380" as="targetPoint" />
          </mxGeometry>
        </mxCell>
        <mxCell id="XJ6JK2tIFhn-W2cwrTGe-6" value="x &amp;gt; 0" style="rhombus;whiteSpace=wrap;html=1;" vertex="1" parent="XJ6JK2tIFhn-W2cwrTGe-1">
          <mxGeometry x="330" y="260" width="80" height="80" as="geometry" />
        </mxCell>
        <mxCell id="XJ6JK2tIFhn-W2cwrTGe-7" value="Нет" style="text;html=1;align=center;verticalAlign=middle;resizable=0;points=[];autosize=1;" vertex="1" parent="XJ6JK2tIFhn-W2cwrTGe-1">
          <mxGeometry x="240" y="240" width="40" height="20" as="geometry" />
        </mxCell>
        <mxCell id="XJ6JK2tIFhn-W2cwrTGe-8" value="Да" style="text;html=1;align=center;verticalAlign=middle;resizable=0;points=[];autosize=1;" vertex="1" parent="XJ6JK2tIFhn-W2cwrTGe-1">
          <mxGeometry x="445" y="240" width="30" height="20" as="geometry" />
        </mxCell>
        <mxCell id="XJ6JK2tIFhn-W2cwrTGe-22" style="edgeStyle=orthogonalEdgeStyle;rounded=0;orthogonalLoop=1;jettySize=auto;html=1;" edge="1" parent="XJ6JK2tIFhn-W2cwrTGe-1" source="XJ6JK2tIFhn-W2cwrTGe-11">
          <mxGeometry relative="1" as="geometry">
            <mxPoint x="490" y="560" as="targetPoint" />
          </mxGeometry>
        </mxCell>
        <mxCell id="XJ6JK2tIFhn-W2cwrTGe-11" value="y = 2x - 10" style="rounded=0;whiteSpace=wrap;html=1;" vertex="1" parent="XJ6JK2tIFhn-W2cwrTGe-1">
          <mxGeometry x="490" y="360" width="120" height="60" as="geometry" />
        </mxCell>
        <mxCell id="XJ6JK2tIFhn-W2cwrTGe-15" style="edgeStyle=orthogonalEdgeStyle;rounded=0;orthogonalLoop=1;jettySize=auto;html=1;" edge="1" parent="XJ6JK2tIFhn-W2cwrTGe-1" source="XJ6JK2tIFhn-W2cwrTGe-14">
          <mxGeometry relative="1" as="geometry">
            <mxPoint x="360" y="480" as="targetPoint" />
          </mxGeometry>
        </mxCell>
        <mxCell id="XJ6JK2tIFhn-W2cwrTGe-16" style="edgeStyle=orthogonalEdgeStyle;rounded=0;orthogonalLoop=1;jettySize=auto;html=1;" edge="1" parent="XJ6JK2tIFhn-W2cwrTGe-1" source="XJ6JK2tIFhn-W2cwrTGe-14">
          <mxGeometry relative="1" as="geometry">
            <mxPoint x="120" y="480" as="targetPoint" />
          </mxGeometry>
        </mxCell>
        <mxCell id="XJ6JK2tIFhn-W2cwrTGe-14" value="x == 0" style="rhombus;whiteSpace=wrap;html=1;" vertex="1" parent="XJ6JK2tIFhn-W2cwrTGe-1">
          <mxGeometry x="180" y="380" width="80" height="80" as="geometry" />
        </mxCell>
        <mxCell id="XJ6JK2tIFhn-W2cwrTGe-20" style="edgeStyle=orthogonalEdgeStyle;rounded=0;orthogonalLoop=1;jettySize=auto;html=1;" edge="1" parent="XJ6JK2tIFhn-W2cwrTGe-1" source="XJ6JK2tIFhn-W2cwrTGe-17">
          <mxGeometry relative="1" as="geometry">
            <mxPoint x="490" y="596" as="targetPoint" />
            <Array as="points">
              <mxPoint x="120" y="561" />
              <mxPoint x="490" y="561" />
              <mxPoint x="490" y="596" />
            </Array>
          </mxGeometry>
        </mxCell>
        <mxCell id="XJ6JK2tIFhn-W2cwrTGe-17" value="y = 2 |x| - 1" style="rounded=0;whiteSpace=wrap;html=1;" vertex="1" parent="XJ6JK2tIFhn-W2cwrTGe-1">
          <mxGeometry x="60" y="480" width="120" height="60" as="geometry" />
        </mxCell>
        <mxCell id="XJ6JK2tIFhn-W2cwrTGe-21" style="edgeStyle=orthogonalEdgeStyle;rounded=0;orthogonalLoop=1;jettySize=auto;html=1;" edge="1" parent="XJ6JK2tIFhn-W2cwrTGe-1" source="XJ6JK2tIFhn-W2cwrTGe-18">
          <mxGeometry relative="1" as="geometry">
            <mxPoint x="370" y="560" as="targetPoint" />
          </mxGeometry>
        </mxCell>
        <mxCell id="XJ6JK2tIFhn-W2cwrTGe-18" value="y = 0" style="rounded=0;whiteSpace=wrap;html=1;" vertex="1" parent="XJ6JK2tIFhn-W2cwrTGe-1">
          <mxGeometry x="300" y="480" width="120" height="60" as="geometry" />
        </mxCell>
        <mxCell id="XJ6JK2tIFhn-W2cwrTGe-24" style="edgeStyle=orthogonalEdgeStyle;rounded=0;orthogonalLoop=1;jettySize=auto;html=1;entryX=0.5;entryY=0;entryDx=0;entryDy=0;" edge="1" parent="XJ6JK2tIFhn-W2cwrTGe-1" source="XJ6JK2tIFhn-W2cwrTGe-19" target="XJ6JK2tIFhn-W2cwrTGe-23">
          <mxGeometry relative="1" as="geometry" />
        </mxCell>
        <mxCell id="XJ6JK2tIFhn-W2cwrTGe-19" value="ВЫВОД&lt;br&gt;y" style="shape=parallelogram;perimeter=parallelogramPerimeter;whiteSpace=wrap;html=1;fixedSize=1;" vertex="1" parent="XJ6JK2tIFhn-W2cwrTGe-1">
          <mxGeometry x="430" y="600" width="120" height="60" as="geometry" />
        </mxCell>
        <mxCell id="XJ6JK2tIFhn-W2cwrTGe-23" value="КОНЕЦ" style="ellipse;whiteSpace=wrap;html=1;" vertex="1" parent="XJ6JK2tIFhn-W2cwrTGe-1">
          <mxGeometry x="430" y="710" width="120" height="70" as="geometry" />
        </mxCell>
      </root>
    </mxGraphModel>
  </diagram>
  <diagram id="y2AneH1_XECdIivHjce8" name="Page-4">
    <mxGraphModel dx="1240" dy="689" grid="1" gridSize="10" guides="1" tooltips="1" connect="1" arrows="1" fold="1" page="1" pageScale="1" pageWidth="850" pageHeight="1100" math="0" shadow="0">
      <root>
        <mxCell id="AAPsdSDCib7VWcurdDWS-0" />
        <mxCell id="AAPsdSDCib7VWcurdDWS-1" parent="AAPsdSDCib7VWcurdDWS-0" />
        <mxCell id="AAPsdSDCib7VWcurdDWS-5" style="edgeStyle=orthogonalEdgeStyle;rounded=0;orthogonalLoop=1;jettySize=auto;html=1;entryX=0.5;entryY=0;entryDx=0;entryDy=0;" edge="1" parent="AAPsdSDCib7VWcurdDWS-1" source="AAPsdSDCib7VWcurdDWS-2" target="AAPsdSDCib7VWcurdDWS-3">
          <mxGeometry relative="1" as="geometry" />
        </mxCell>
        <mxCell id="AAPsdSDCib7VWcurdDWS-2" value="НАЧАЛО" style="ellipse;whiteSpace=wrap;html=1;" vertex="1" parent="AAPsdSDCib7VWcurdDWS-1">
          <mxGeometry x="70" y="130" width="110" height="60" as="geometry" />
        </mxCell>
        <mxCell id="AAPsdSDCib7VWcurdDWS-6" style="edgeStyle=orthogonalEdgeStyle;rounded=0;orthogonalLoop=1;jettySize=auto;html=1;" edge="1" parent="AAPsdSDCib7VWcurdDWS-1" source="AAPsdSDCib7VWcurdDWS-3">
          <mxGeometry relative="1" as="geometry">
            <mxPoint x="125" y="300" as="targetPoint" />
          </mxGeometry>
        </mxCell>
        <mxCell id="AAPsdSDCib7VWcurdDWS-3" value="ВВОД&lt;br&gt;a, b, c" style="shape=parallelogram;perimeter=parallelogramPerimeter;whiteSpace=wrap;html=1;fixedSize=1;" vertex="1" parent="AAPsdSDCib7VWcurdDWS-1">
          <mxGeometry x="62.5" y="220" width="125" height="50" as="geometry" />
        </mxCell>
        <mxCell id="AAPsdSDCib7VWcurdDWS-8" style="edgeStyle=orthogonalEdgeStyle;rounded=0;orthogonalLoop=1;jettySize=auto;html=1;" edge="1" parent="AAPsdSDCib7VWcurdDWS-1" source="AAPsdSDCib7VWcurdDWS-7">
          <mxGeometry relative="1" as="geometry">
            <mxPoint x="127.5" y="390" as="targetPoint" />
          </mxGeometry>
        </mxCell>
        <mxCell id="AAPsdSDCib7VWcurdDWS-7" value="m = a" style="rounded=0;whiteSpace=wrap;html=1;" vertex="1" parent="AAPsdSDCib7VWcurdDWS-1">
          <mxGeometry x="67.5" y="300" width="120" height="50" as="geometry" />
        </mxCell>
        <mxCell id="AAPsdSDCib7VWcurdDWS-12" style="edgeStyle=orthogonalEdgeStyle;rounded=0;orthogonalLoop=1;jettySize=auto;html=1;" edge="1" parent="AAPsdSDCib7VWcurdDWS-1" source="AAPsdSDCib7VWcurdDWS-9">
          <mxGeometry relative="1" as="geometry">
            <mxPoint x="130" y="580" as="targetPoint" />
            <Array as="points">
              <mxPoint x="60" y="425" />
              <mxPoint x="60" y="540" />
              <mxPoint x="128" y="540" />
              <mxPoint x="128" y="590" />
            </Array>
          </mxGeometry>
        </mxCell>
        <mxCell id="AAPsdSDCib7VWcurdDWS-13" style="edgeStyle=orthogonalEdgeStyle;rounded=0;orthogonalLoop=1;jettySize=auto;html=1;" edge="1" parent="AAPsdSDCib7VWcurdDWS-1" source="AAPsdSDCib7VWcurdDWS-9">
          <mxGeometry relative="1" as="geometry">
            <mxPoint x="250" y="490" as="targetPoint" />
          </mxGeometry>
        </mxCell>
        <mxCell id="AAPsdSDCib7VWcurdDWS-9" value="m &amp;lt; b" style="rhombus;whiteSpace=wrap;html=1;" vertex="1" parent="AAPsdSDCib7VWcurdDWS-1">
          <mxGeometry x="87.5" y="390" width="80" height="70" as="geometry" />
        </mxCell>
        <mxCell id="AAPsdSDCib7VWcurdDWS-10" value="Нет" style="text;html=1;align=center;verticalAlign=middle;resizable=0;points=[];autosize=1;" vertex="1" parent="AAPsdSDCib7VWcurdDWS-1">
          <mxGeometry x="10" y="390" width="40" height="20" as="geometry" />
        </mxCell>
        <mxCell id="AAPsdSDCib7VWcurdDWS-11" value="Да" style="text;html=1;align=center;verticalAlign=middle;resizable=0;points=[];autosize=1;" vertex="1" parent="AAPsdSDCib7VWcurdDWS-1">
          <mxGeometry x="215" y="390" width="30" height="20" as="geometry" />
        </mxCell>
        <mxCell id="AAPsdSDCib7VWcurdDWS-17" style="edgeStyle=orthogonalEdgeStyle;rounded=0;orthogonalLoop=1;jettySize=auto;html=1;" edge="1" parent="AAPsdSDCib7VWcurdDWS-1" source="AAPsdSDCib7VWcurdDWS-14">
          <mxGeometry relative="1" as="geometry">
            <mxPoint x="130" y="590" as="targetPoint" />
            <Array as="points">
              <mxPoint x="255" y="560" />
              <mxPoint x="130" y="560" />
            </Array>
          </mxGeometry>
        </mxCell>
        <mxCell id="AAPsdSDCib7VWcurdDWS-14" value="m = b" style="rounded=0;whiteSpace=wrap;html=1;" vertex="1" parent="AAPsdSDCib7VWcurdDWS-1">
          <mxGeometry x="200" y="490" width="110" height="50" as="geometry" />
        </mxCell>
        <mxCell id="AAPsdSDCib7VWcurdDWS-18" value="Нет" style="text;html=1;align=center;verticalAlign=middle;resizable=0;points=[];autosize=1;" vertex="1" parent="AAPsdSDCib7VWcurdDWS-1">
          <mxGeometry x="10" y="590" width="40" height="20" as="geometry" />
        </mxCell>
        <mxCell id="AAPsdSDCib7VWcurdDWS-19" value="Да" style="text;html=1;align=center;verticalAlign=middle;resizable=0;points=[];autosize=1;" vertex="1" parent="AAPsdSDCib7VWcurdDWS-1">
          <mxGeometry x="215" y="590" width="30" height="20" as="geometry" />
        </mxCell>
        <mxCell id="AAPsdSDCib7VWcurdDWS-20" style="edgeStyle=orthogonalEdgeStyle;rounded=0;orthogonalLoop=1;jettySize=auto;html=1;" edge="1" parent="AAPsdSDCib7VWcurdDWS-1" source="AAPsdSDCib7VWcurdDWS-22">
          <mxGeometry relative="1" as="geometry">
            <mxPoint x="130.5" y="790" as="targetPoint" />
            <Array as="points">
              <mxPoint x="62.5" y="625" />
              <mxPoint x="62.5" y="740" />
              <mxPoint x="130.5" y="740" />
            </Array>
          </mxGeometry>
        </mxCell>
        <mxCell id="AAPsdSDCib7VWcurdDWS-21" style="edgeStyle=orthogonalEdgeStyle;rounded=0;orthogonalLoop=1;jettySize=auto;html=1;" edge="1" parent="AAPsdSDCib7VWcurdDWS-1" source="AAPsdSDCib7VWcurdDWS-22">
          <mxGeometry relative="1" as="geometry">
            <mxPoint x="252.5" y="690" as="targetPoint" />
          </mxGeometry>
        </mxCell>
        <mxCell id="AAPsdSDCib7VWcurdDWS-22" value="m &amp;lt; c" style="rhombus;whiteSpace=wrap;html=1;" vertex="1" parent="AAPsdSDCib7VWcurdDWS-1">
          <mxGeometry x="90" y="590" width="80" height="70" as="geometry" />
        </mxCell>
        <mxCell id="AAPsdSDCib7VWcurdDWS-23" style="edgeStyle=orthogonalEdgeStyle;rounded=0;orthogonalLoop=1;jettySize=auto;html=1;" edge="1" parent="AAPsdSDCib7VWcurdDWS-1">
          <mxGeometry relative="1" as="geometry">
            <mxPoint x="132.5" y="770" as="targetPoint" />
            <Array as="points">
              <mxPoint x="257.5" y="760" />
              <mxPoint x="132.5" y="760" />
            </Array>
            <mxPoint x="257.5" y="740" as="sourcePoint" />
          </mxGeometry>
        </mxCell>
        <mxCell id="AAPsdSDCib7VWcurdDWS-25" value="m = c" style="rounded=0;whiteSpace=wrap;html=1;" vertex="1" parent="AAPsdSDCib7VWcurdDWS-1">
          <mxGeometry x="200" y="690" width="110" height="50" as="geometry" />
        </mxCell>
        <mxCell id="AAPsdSDCib7VWcurdDWS-28" style="edgeStyle=orthogonalEdgeStyle;rounded=0;orthogonalLoop=1;jettySize=auto;html=1;" edge="1" parent="AAPsdSDCib7VWcurdDWS-1" source="AAPsdSDCib7VWcurdDWS-27" target="AAPsdSDCib7VWcurdDWS-29">
          <mxGeometry relative="1" as="geometry">
            <mxPoint x="130" y="890" as="targetPoint" />
          </mxGeometry>
        </mxCell>
        <mxCell id="AAPsdSDCib7VWcurdDWS-27" value="ВЫВОД&lt;br&gt;m" style="shape=parallelogram;perimeter=parallelogramPerimeter;whiteSpace=wrap;html=1;fixedSize=1;" vertex="1" parent="AAPsdSDCib7VWcurdDWS-1">
          <mxGeometry x="70" y="790" width="120" height="60" as="geometry" />
        </mxCell>
        <mxCell id="AAPsdSDCib7VWcurdDWS-29" value="КОНЕЦ" style="ellipse;whiteSpace=wrap;html=1;" vertex="1" parent="AAPsdSDCib7VWcurdDWS-1">
          <mxGeometry x="75" y="900" width="110" height="70" as="geometry" />
        </mxCell>
        <mxCell id="AAPsdSDCib7VWcurdDWS-30" value="ПЕРВЫЙ ВАРИАНТ" style="text;html=1;align=center;verticalAlign=middle;resizable=0;points=[];autosize=1;" vertex="1" parent="AAPsdSDCib7VWcurdDWS-1">
          <mxGeometry x="55" y="60" width="130" height="20" as="geometry" />
        </mxCell>
        <mxCell id="AAPsdSDCib7VWcurdDWS-31" value="ВТОРОЙ ВАРИАНТ" style="text;html=1;align=center;verticalAlign=middle;resizable=0;points=[];autosize=1;" vertex="1" parent="AAPsdSDCib7VWcurdDWS-1">
          <mxGeometry x="560" y="60" width="120" height="20" as="geometry" />
        </mxCell>
        <mxCell id="AAPsdSDCib7VWcurdDWS-33" style="edgeStyle=orthogonalEdgeStyle;rounded=0;orthogonalLoop=1;jettySize=auto;html=1;" edge="1" parent="AAPsdSDCib7VWcurdDWS-1" source="AAPsdSDCib7VWcurdDWS-32" target="AAPsdSDCib7VWcurdDWS-34">
          <mxGeometry relative="1" as="geometry">
            <mxPoint x="620" y="220" as="targetPoint" />
          </mxGeometry>
        </mxCell>
        <mxCell id="AAPsdSDCib7VWcurdDWS-32" value="НАЧАЛО" style="ellipse;whiteSpace=wrap;html=1;" vertex="1" parent="AAPsdSDCib7VWcurdDWS-1">
          <mxGeometry x="560" y="120" width="120" height="60" as="geometry" />
        </mxCell>
        <mxCell id="AAPsdSDCib7VWcurdDWS-35" style="edgeStyle=orthogonalEdgeStyle;rounded=0;orthogonalLoop=1;jettySize=auto;html=1;" edge="1" parent="AAPsdSDCib7VWcurdDWS-1" source="AAPsdSDCib7VWcurdDWS-34">
          <mxGeometry relative="1" as="geometry">
            <mxPoint x="620" y="300" as="targetPoint" />
          </mxGeometry>
        </mxCell>
        <mxCell id="AAPsdSDCib7VWcurdDWS-34" value="ВВОД&lt;br&gt;a, b, c" style="shape=parallelogram;perimeter=parallelogramPerimeter;whiteSpace=wrap;html=1;fixedSize=1;" vertex="1" parent="AAPsdSDCib7VWcurdDWS-1">
          <mxGeometry x="560" y="220" width="120" height="50" as="geometry" />
        </mxCell>
        <mxCell id="AAPsdSDCib7VWcurdDWS-39" style="edgeStyle=orthogonalEdgeStyle;rounded=0;orthogonalLoop=1;jettySize=auto;html=1;" edge="1" parent="AAPsdSDCib7VWcurdDWS-1" source="AAPsdSDCib7VWcurdDWS-36">
          <mxGeometry relative="1" as="geometry">
            <mxPoint x="720" y="400" as="targetPoint" />
          </mxGeometry>
        </mxCell>
        <mxCell id="AAPsdSDCib7VWcurdDWS-58" style="edgeStyle=orthogonalEdgeStyle;rounded=0;orthogonalLoop=1;jettySize=auto;html=1;" edge="1" parent="AAPsdSDCib7VWcurdDWS-1" source="AAPsdSDCib7VWcurdDWS-36" target="AAPsdSDCib7VWcurdDWS-51">
          <mxGeometry relative="1" as="geometry" />
        </mxCell>
        <mxCell id="AAPsdSDCib7VWcurdDWS-36" value="a &amp;gt; b" style="rhombus;whiteSpace=wrap;html=1;" vertex="1" parent="AAPsdSDCib7VWcurdDWS-1">
          <mxGeometry x="580" y="300" width="80" height="70" as="geometry" />
        </mxCell>
        <mxCell id="AAPsdSDCib7VWcurdDWS-37" value="Нет" style="text;html=1;align=center;verticalAlign=middle;resizable=0;points=[];autosize=1;" vertex="1" parent="AAPsdSDCib7VWcurdDWS-1">
          <mxGeometry x="520" y="300" width="40" height="20" as="geometry" />
        </mxCell>
        <mxCell id="AAPsdSDCib7VWcurdDWS-38" value="Да" style="text;html=1;align=center;verticalAlign=middle;resizable=0;points=[];autosize=1;" vertex="1" parent="AAPsdSDCib7VWcurdDWS-1">
          <mxGeometry x="680" y="300" width="30" height="20" as="geometry" />
        </mxCell>
        <mxCell id="AAPsdSDCib7VWcurdDWS-44" style="edgeStyle=orthogonalEdgeStyle;rounded=0;orthogonalLoop=1;jettySize=auto;html=1;" edge="1" parent="AAPsdSDCib7VWcurdDWS-1" source="AAPsdSDCib7VWcurdDWS-41" target="AAPsdSDCib7VWcurdDWS-45">
          <mxGeometry relative="1" as="geometry">
            <mxPoint x="800" y="520" as="targetPoint" />
            <Array as="points">
              <mxPoint x="790" y="435" />
            </Array>
          </mxGeometry>
        </mxCell>
        <mxCell id="AAPsdSDCib7VWcurdDWS-46" style="edgeStyle=orthogonalEdgeStyle;rounded=0;orthogonalLoop=1;jettySize=auto;html=1;" edge="1" parent="AAPsdSDCib7VWcurdDWS-1" source="AAPsdSDCib7VWcurdDWS-41">
          <mxGeometry relative="1" as="geometry">
            <mxPoint x="640" y="520" as="targetPoint" />
          </mxGeometry>
        </mxCell>
        <mxCell id="AAPsdSDCib7VWcurdDWS-41" value="a &amp;gt; c" style="rhombus;whiteSpace=wrap;html=1;" vertex="1" parent="AAPsdSDCib7VWcurdDWS-1">
          <mxGeometry x="680" y="400" width="80" height="70" as="geometry" />
        </mxCell>
        <mxCell id="AAPsdSDCib7VWcurdDWS-42" value="Нет" style="text;html=1;align=center;verticalAlign=middle;resizable=0;points=[];autosize=1;" vertex="1" parent="AAPsdSDCib7VWcurdDWS-1">
          <mxGeometry x="640" y="380" width="40" height="20" as="geometry" />
        </mxCell>
        <mxCell id="AAPsdSDCib7VWcurdDWS-43" value="Да" style="text;html=1;align=center;verticalAlign=middle;resizable=0;points=[];autosize=1;" vertex="1" parent="AAPsdSDCib7VWcurdDWS-1">
          <mxGeometry x="760" y="380" width="30" height="20" as="geometry" />
        </mxCell>
        <mxCell id="AAPsdSDCib7VWcurdDWS-62" style="edgeStyle=orthogonalEdgeStyle;rounded=0;orthogonalLoop=1;jettySize=auto;html=1;entryX=0.5;entryY=0;entryDx=0;entryDy=0;" edge="1" parent="AAPsdSDCib7VWcurdDWS-1" source="AAPsdSDCib7VWcurdDWS-45" target="AAPsdSDCib7VWcurdDWS-59">
          <mxGeometry relative="1" as="geometry">
            <Array as="points">
              <mxPoint x="780" y="620" />
              <mxPoint x="610" y="620" />
            </Array>
          </mxGeometry>
        </mxCell>
        <mxCell id="AAPsdSDCib7VWcurdDWS-45" value="ВЫВОД&lt;br&gt;a" style="shape=parallelogram;perimeter=parallelogramPerimeter;whiteSpace=wrap;html=1;fixedSize=1;" vertex="1" parent="AAPsdSDCib7VWcurdDWS-1">
          <mxGeometry x="730" y="520" width="100" height="50" as="geometry" />
        </mxCell>
        <mxCell id="AAPsdSDCib7VWcurdDWS-63" style="edgeStyle=orthogonalEdgeStyle;rounded=0;orthogonalLoop=1;jettySize=auto;html=1;" edge="1" parent="AAPsdSDCib7VWcurdDWS-1" source="AAPsdSDCib7VWcurdDWS-47">
          <mxGeometry relative="1" as="geometry">
            <mxPoint x="640" y="620" as="targetPoint" />
          </mxGeometry>
        </mxCell>
        <mxCell id="AAPsdSDCib7VWcurdDWS-47" value="ВЫВОД&lt;br&gt;c" style="shape=parallelogram;perimeter=parallelogramPerimeter;whiteSpace=wrap;html=1;fixedSize=1;" vertex="1" parent="AAPsdSDCib7VWcurdDWS-1">
          <mxGeometry x="590" y="520" width="100" height="50" as="geometry" />
        </mxCell>
        <mxCell id="AAPsdSDCib7VWcurdDWS-49" style="edgeStyle=orthogonalEdgeStyle;rounded=0;orthogonalLoop=1;jettySize=auto;html=1;" edge="1" parent="AAPsdSDCib7VWcurdDWS-1" source="AAPsdSDCib7VWcurdDWS-51" target="AAPsdSDCib7VWcurdDWS-54">
          <mxGeometry relative="1" as="geometry">
            <mxPoint x="560" y="520" as="targetPoint" />
            <Array as="points">
              <mxPoint x="550" y="435" />
            </Array>
          </mxGeometry>
        </mxCell>
        <mxCell id="AAPsdSDCib7VWcurdDWS-50" style="edgeStyle=orthogonalEdgeStyle;rounded=0;orthogonalLoop=1;jettySize=auto;html=1;" edge="1" parent="AAPsdSDCib7VWcurdDWS-1" source="AAPsdSDCib7VWcurdDWS-51">
          <mxGeometry relative="1" as="geometry">
            <mxPoint x="400" y="520" as="targetPoint" />
          </mxGeometry>
        </mxCell>
        <mxCell id="AAPsdSDCib7VWcurdDWS-51" value="b &amp;gt; c" style="rhombus;whiteSpace=wrap;html=1;" vertex="1" parent="AAPsdSDCib7VWcurdDWS-1">
          <mxGeometry x="440" y="400" width="80" height="70" as="geometry" />
        </mxCell>
        <mxCell id="AAPsdSDCib7VWcurdDWS-52" value="Нет" style="text;html=1;align=center;verticalAlign=middle;resizable=0;points=[];autosize=1;" vertex="1" parent="AAPsdSDCib7VWcurdDWS-1">
          <mxGeometry x="400" y="380" width="40" height="20" as="geometry" />
        </mxCell>
        <mxCell id="AAPsdSDCib7VWcurdDWS-53" value="Да" style="text;html=1;align=center;verticalAlign=middle;resizable=0;points=[];autosize=1;" vertex="1" parent="AAPsdSDCib7VWcurdDWS-1">
          <mxGeometry x="520" y="380" width="30" height="20" as="geometry" />
        </mxCell>
        <mxCell id="AAPsdSDCib7VWcurdDWS-61" style="edgeStyle=orthogonalEdgeStyle;rounded=0;orthogonalLoop=1;jettySize=auto;html=1;" edge="1" parent="AAPsdSDCib7VWcurdDWS-1" source="AAPsdSDCib7VWcurdDWS-54">
          <mxGeometry relative="1" as="geometry">
            <mxPoint x="540" y="620" as="targetPoint" />
          </mxGeometry>
        </mxCell>
        <mxCell id="AAPsdSDCib7VWcurdDWS-54" value="ВЫВОД&lt;br&gt;b" style="shape=parallelogram;perimeter=parallelogramPerimeter;whiteSpace=wrap;html=1;fixedSize=1;" vertex="1" parent="AAPsdSDCib7VWcurdDWS-1">
          <mxGeometry x="490" y="520" width="100" height="50" as="geometry" />
        </mxCell>
        <mxCell id="AAPsdSDCib7VWcurdDWS-60" style="edgeStyle=orthogonalEdgeStyle;rounded=0;orthogonalLoop=1;jettySize=auto;html=1;" edge="1" parent="AAPsdSDCib7VWcurdDWS-1" source="AAPsdSDCib7VWcurdDWS-55" target="AAPsdSDCib7VWcurdDWS-59">
          <mxGeometry relative="1" as="geometry">
            <Array as="points">
              <mxPoint x="400" y="620" />
              <mxPoint x="610" y="620" />
            </Array>
          </mxGeometry>
        </mxCell>
        <mxCell id="AAPsdSDCib7VWcurdDWS-55" value="ВЫВОД&lt;br&gt;c" style="shape=parallelogram;perimeter=parallelogramPerimeter;whiteSpace=wrap;html=1;fixedSize=1;" vertex="1" parent="AAPsdSDCib7VWcurdDWS-1">
          <mxGeometry x="350" y="520" width="100" height="50" as="geometry" />
        </mxCell>
        <mxCell id="AAPsdSDCib7VWcurdDWS-59" value="КОНЕЦ" style="ellipse;whiteSpace=wrap;html=1;" vertex="1" parent="AAPsdSDCib7VWcurdDWS-1">
          <mxGeometry x="550" y="640" width="120" height="60" as="geometry" />
        </mxCell>
      </root>
    </mxGraphModel>
  </diagram>
  <diagram id="0LgI-UUMuEI1kJviUzaW" name="Page-5">
    <mxGraphModel dx="2370" dy="1323" grid="1" gridSize="16" guides="1" tooltips="1" connect="1" arrows="1" fold="1" page="1" pageScale="1" pageWidth="850" pageHeight="1100" math="0" shadow="0">
      <root>
        <mxCell id="OjZ2M9nXDM1R9ajU_JE4-0" />
        <mxCell id="OjZ2M9nXDM1R9ajU_JE4-1" parent="OjZ2M9nXDM1R9ajU_JE4-0" />
        <mxCell id="fCRBlNdzAp9UYacHBg0e-1" style="edgeStyle=orthogonalEdgeStyle;rounded=0;orthogonalLoop=1;jettySize=auto;html=1;" edge="1" parent="OjZ2M9nXDM1R9ajU_JE4-1" source="OjZ2M9nXDM1R9ajU_JE4-2">
          <mxGeometry relative="1" as="geometry">
            <mxPoint x="387" y="130" as="targetPoint" />
          </mxGeometry>
        </mxCell>
        <mxCell id="OjZ2M9nXDM1R9ajU_JE4-2" value="НАЧАЛО" style="ellipse;whiteSpace=wrap;html=1;" vertex="1" parent="OjZ2M9nXDM1R9ajU_JE4-1">
          <mxGeometry x="330" y="20" width="115" height="70" as="geometry" />
        </mxCell>
        <mxCell id="fCRBlNdzAp9UYacHBg0e-3" style="edgeStyle=orthogonalEdgeStyle;rounded=0;orthogonalLoop=1;jettySize=auto;html=1;entryX=0.5;entryY=0;entryDx=0;entryDy=0;" edge="1" parent="OjZ2M9nXDM1R9ajU_JE4-1" source="fCRBlNdzAp9UYacHBg0e-0" target="fCRBlNdzAp9UYacHBg0e-2">
          <mxGeometry relative="1" as="geometry" />
        </mxCell>
        <mxCell id="fCRBlNdzAp9UYacHBg0e-0" value="ВВОД&lt;br&gt;num" style="shape=parallelogram;perimeter=parallelogramPerimeter;whiteSpace=wrap;html=1;fixedSize=1;" vertex="1" parent="OjZ2M9nXDM1R9ajU_JE4-1">
          <mxGeometry x="320" y="130" width="120" height="60" as="geometry" />
        </mxCell>
        <mxCell id="fCRBlNdzAp9UYacHBg0e-5" style="edgeStyle=orthogonalEdgeStyle;rounded=0;orthogonalLoop=1;jettySize=auto;html=1;entryX=0.5;entryY=0;entryDx=0;entryDy=0;" edge="1" parent="OjZ2M9nXDM1R9ajU_JE4-1" source="fCRBlNdzAp9UYacHBg0e-2" target="fCRBlNdzAp9UYacHBg0e-4">
          <mxGeometry relative="1" as="geometry" />
        </mxCell>
        <mxCell id="fCRBlNdzAp9UYacHBg0e-2" value="&lt;font style=&quot;font-size: 14px&quot;&gt;ВВОД ans&lt;br&gt;&quot;b - в байты&lt;br&gt;k - в килобайты&quot;&lt;/font&gt;" style="shape=parallelogram;perimeter=parallelogramPerimeter;whiteSpace=wrap;html=1;fixedSize=1;" vertex="1" parent="OjZ2M9nXDM1R9ajU_JE4-1">
          <mxGeometry x="260" y="240" width="240" height="60" as="geometry" />
        </mxCell>
        <mxCell id="fCRBlNdzAp9UYacHBg0e-8" style="edgeStyle=orthogonalEdgeStyle;rounded=0;orthogonalLoop=1;jettySize=auto;html=1;" edge="1" parent="OjZ2M9nXDM1R9ajU_JE4-1" source="fCRBlNdzAp9UYacHBg0e-4">
          <mxGeometry relative="1" as="geometry">
            <mxPoint x="192" y="480" as="targetPoint" />
          </mxGeometry>
        </mxCell>
        <mxCell id="fCRBlNdzAp9UYacHBg0e-12" style="edgeStyle=orthogonalEdgeStyle;rounded=0;orthogonalLoop=1;jettySize=auto;html=1;" edge="1" parent="OjZ2M9nXDM1R9ajU_JE4-1" source="fCRBlNdzAp9UYacHBg0e-4" target="fCRBlNdzAp9UYacHBg0e-13">
          <mxGeometry relative="1" as="geometry">
            <mxPoint x="576" y="448" as="targetPoint" />
          </mxGeometry>
        </mxCell>
        <mxCell id="fCRBlNdzAp9UYacHBg0e-4" value="&lt;font style=&quot;font-size: 14px&quot;&gt;ans == &#39;b&#39;&lt;/font&gt;" style="rhombus;whiteSpace=wrap;html=1;" vertex="1" parent="OjZ2M9nXDM1R9ajU_JE4-1">
          <mxGeometry x="340" y="336" width="80" height="80" as="geometry" />
        </mxCell>
        <mxCell id="fCRBlNdzAp9UYacHBg0e-6" value="Нет" style="text;html=1;align=center;verticalAlign=middle;resizable=0;points=[];autosize=1;" vertex="1" parent="OjZ2M9nXDM1R9ajU_JE4-1">
          <mxGeometry x="268" y="322" width="48" height="16" as="geometry" />
        </mxCell>
        <mxCell id="fCRBlNdzAp9UYacHBg0e-7" value="Да" style="text;html=1;align=center;verticalAlign=middle;resizable=0;points=[];autosize=1;" vertex="1" parent="OjZ2M9nXDM1R9ajU_JE4-1">
          <mxGeometry x="460" y="322" width="32" height="16" as="geometry" />
        </mxCell>
        <mxCell id="fCRBlNdzAp9UYacHBg0e-14" style="edgeStyle=orthogonalEdgeStyle;rounded=0;orthogonalLoop=1;jettySize=auto;html=1;" edge="1" parent="OjZ2M9nXDM1R9ajU_JE4-1" source="fCRBlNdzAp9UYacHBg0e-9">
          <mxGeometry relative="1" as="geometry">
            <mxPoint x="336" y="592" as="targetPoint" />
          </mxGeometry>
        </mxCell>
        <mxCell id="fCRBlNdzAp9UYacHBg0e-16" style="edgeStyle=orthogonalEdgeStyle;rounded=0;orthogonalLoop=1;jettySize=auto;html=1;" edge="1" parent="OjZ2M9nXDM1R9ajU_JE4-1" source="fCRBlNdzAp9UYacHBg0e-9">
          <mxGeometry relative="1" as="geometry">
            <mxPoint x="80" y="592" as="targetPoint" />
          </mxGeometry>
        </mxCell>
        <mxCell id="fCRBlNdzAp9UYacHBg0e-9" value="ans == &#39;k&#39;" style="rhombus;whiteSpace=wrap;html=1;" vertex="1" parent="OjZ2M9nXDM1R9ajU_JE4-1">
          <mxGeometry x="153" y="480" width="80" height="80" as="geometry" />
        </mxCell>
        <mxCell id="fCRBlNdzAp9UYacHBg0e-10" value="Нет" style="text;html=1;align=center;verticalAlign=middle;resizable=0;points=[];autosize=1;" vertex="1" parent="OjZ2M9nXDM1R9ajU_JE4-1">
          <mxGeometry x="81" y="464" width="48" height="16" as="geometry" />
        </mxCell>
        <mxCell id="fCRBlNdzAp9UYacHBg0e-11" value="Да" style="text;html=1;align=center;verticalAlign=middle;resizable=0;points=[];autosize=1;" vertex="1" parent="OjZ2M9nXDM1R9ajU_JE4-1">
          <mxGeometry x="273" y="464" width="32" height="16" as="geometry" />
        </mxCell>
        <mxCell id="fCRBlNdzAp9UYacHBg0e-13" value="ВЫВОД&lt;br&gt;num * 1024" style="shape=parallelogram;perimeter=parallelogramPerimeter;whiteSpace=wrap;html=1;fixedSize=1;" vertex="1" parent="OjZ2M9nXDM1R9ajU_JE4-1">
          <mxGeometry x="516" y="448" width="120" height="60" as="geometry" />
        </mxCell>
        <mxCell id="fCRBlNdzAp9UYacHBg0e-15" value="ВЫВОД&lt;br&gt;num / 1024" style="shape=parallelogram;perimeter=parallelogramPerimeter;whiteSpace=wrap;html=1;fixedSize=1;" vertex="1" parent="OjZ2M9nXDM1R9ajU_JE4-1">
          <mxGeometry x="273" y="592" width="120" height="60" as="geometry" />
        </mxCell>
        <mxCell id="fCRBlNdzAp9UYacHBg0e-18" style="edgeStyle=orthogonalEdgeStyle;rounded=0;orthogonalLoop=1;jettySize=auto;html=1;" edge="1" parent="OjZ2M9nXDM1R9ajU_JE4-1" source="fCRBlNdzAp9UYacHBg0e-17">
          <mxGeometry relative="1" as="geometry">
            <mxPoint x="304" y="848" as="targetPoint" />
            <Array as="points">
              <mxPoint x="76" y="750" />
              <mxPoint x="304" y="750" />
              <mxPoint x="304" y="848" />
            </Array>
          </mxGeometry>
        </mxCell>
        <mxCell id="fCRBlNdzAp9UYacHBg0e-17" value="ВЫВОД&lt;br&gt;&#39;Неверный ввод&#39;" style="shape=parallelogram;perimeter=parallelogramPerimeter;whiteSpace=wrap;html=1;fixedSize=1;" vertex="1" parent="OjZ2M9nXDM1R9ajU_JE4-1">
          <mxGeometry x="16" y="592" width="120" height="60" as="geometry" />
        </mxCell>
        <mxCell id="fCRBlNdzAp9UYacHBg0e-19" value="КОНЕЦ" style="ellipse;whiteSpace=wrap;html=1;" vertex="1" parent="OjZ2M9nXDM1R9ajU_JE4-1">
          <mxGeometry x="244" y="848" width="124" height="64" as="geometry" />
        </mxCell>
      </root>
    </mxGraphModel>
  </diagram>
  <diagram id="kfDAhM7aMWPTbBKnfwLX" name="Home-Task-1">
    <mxGraphModel dx="2031" dy="1134" grid="1" gridSize="10" guides="1" tooltips="1" connect="1" arrows="1" fold="1" page="1" pageScale="1" pageWidth="850" pageHeight="1100" math="0" shadow="0">
      <root>
        <mxCell id="3HDhF79kHvFXXVwvAc-J-0" />
        <mxCell id="3HDhF79kHvFXXVwvAc-J-1" parent="3HDhF79kHvFXXVwvAc-J-0" />
        <mxCell id="M6vPiTraSSGinegm0AGe-0" value="&lt;p class=&quot;MsoNormal&quot; style=&quot;margin-top: 15.0pt ; margin-right: 0in ; margin-bottom: 7.5pt ; margin-left: 0in ; line-height: 18.0pt ; background: white&quot;&gt;&lt;span lang=&quot;RU&quot; style=&quot;font-family: &amp;#34;helvetica&amp;#34; , sans-serif ; color: rgb(63 , 83 , 104) ; font-size: 12px&quot;&gt;&lt;font style=&quot;font-size: 15px&quot;&gt;&lt;b&gt;1. Выполнить&lt;/b&gt;&lt;b&gt;логические побитовые операции «И», «ИЛИ» и др. над числами 5 и 6. Выполнить над&lt;/b&gt;&lt;b&gt;&lt;br&gt;&lt;/b&gt;&lt;/font&gt;&lt;/span&gt;&lt;/p&gt;&lt;p class=&quot;MsoNormal&quot; style=&quot;margin-top: 15.0pt ; margin-right: 0in ; margin-bottom: 7.5pt ; margin-left: 0in ; line-height: 18.0pt ; background: white&quot;&gt;&lt;span lang=&quot;RU&quot; style=&quot;font-family: &amp;#34;helvetica&amp;#34; , sans-serif ; color: rgb(63 , 83 , 104) ; font-size: 12px&quot;&gt;&lt;font style=&quot;font-size: 15px&quot;&gt;&lt;b&gt;числом 5 побитовый сдвиг вправо и влево на два знака.&lt;/b&gt;&lt;/font&gt;&lt;span style=&quot;font-size: 13pt&quot;&gt;&lt;/span&gt;&lt;/span&gt;&lt;/p&gt;" style="text;html=1;align=center;verticalAlign=middle;resizable=0;points=[];autosize=1;fontSize=14;" vertex="1" parent="3HDhF79kHvFXXVwvAc-J-1">
          <mxGeometry x="40" y="50" width="760" height="110" as="geometry" />
        </mxCell>
        <mxCell id="M6vPiTraSSGinegm0AGe-3" style="edgeStyle=orthogonalEdgeStyle;rounded=1;jumpSize=12;orthogonalLoop=1;jettySize=auto;html=1;entryX=0.5;entryY=0;entryDx=0;entryDy=0;targetPerimeterSpacing=8;fontSize=14;" edge="1" parent="3HDhF79kHvFXXVwvAc-J-1" source="M6vPiTraSSGinegm0AGe-1" target="M6vPiTraSSGinegm0AGe-2">
          <mxGeometry relative="1" as="geometry" />
        </mxCell>
        <mxCell id="M6vPiTraSSGinegm0AGe-1" value="НАЧАЛО" style="ellipse;whiteSpace=wrap;html=1;fontSize=14;" vertex="1" parent="3HDhF79kHvFXXVwvAc-J-1">
          <mxGeometry x="320" y="180" width="120" height="60" as="geometry" />
        </mxCell>
        <mxCell id="M6vPiTraSSGinegm0AGe-5" style="edgeStyle=orthogonalEdgeStyle;rounded=1;jumpSize=12;orthogonalLoop=1;jettySize=auto;html=1;entryX=0.5;entryY=0;entryDx=0;entryDy=0;targetPerimeterSpacing=8;fontSize=14;" edge="1" parent="3HDhF79kHvFXXVwvAc-J-1" source="M6vPiTraSSGinegm0AGe-2" target="M6vPiTraSSGinegm0AGe-4">
          <mxGeometry relative="1" as="geometry" />
        </mxCell>
        <mxCell id="M6vPiTraSSGinegm0AGe-2" value="a = 5&lt;br&gt;b = 6" style="rounded=0;whiteSpace=wrap;html=1;" vertex="1" parent="3HDhF79kHvFXXVwvAc-J-1">
          <mxGeometry x="320" y="270" width="120" height="50" as="geometry" />
        </mxCell>
        <mxCell id="M6vPiTraSSGinegm0AGe-7" style="edgeStyle=orthogonalEdgeStyle;rounded=1;jumpSize=12;orthogonalLoop=1;jettySize=auto;html=1;entryX=0.5;entryY=0;entryDx=0;entryDy=0;targetPerimeterSpacing=8;fontSize=14;" edge="1" parent="3HDhF79kHvFXXVwvAc-J-1" source="M6vPiTraSSGinegm0AGe-4" target="M6vPiTraSSGinegm0AGe-6">
          <mxGeometry relative="1" as="geometry" />
        </mxCell>
        <mxCell id="M6vPiTraSSGinegm0AGe-4" value="ВЫВОД&lt;br&gt;a &amp;amp; b" style="shape=parallelogram;perimeter=parallelogramPerimeter;whiteSpace=wrap;html=1;fixedSize=1;fontSize=14;" vertex="1" parent="3HDhF79kHvFXXVwvAc-J-1">
          <mxGeometry x="320" y="350" width="120" height="60" as="geometry" />
        </mxCell>
        <mxCell id="M6vPiTraSSGinegm0AGe-9" style="edgeStyle=orthogonalEdgeStyle;rounded=1;jumpSize=12;orthogonalLoop=1;jettySize=auto;html=1;entryX=0.5;entryY=0;entryDx=0;entryDy=0;targetPerimeterSpacing=8;fontSize=14;entryPerimeter=0;" edge="1" parent="3HDhF79kHvFXXVwvAc-J-1" source="M6vPiTraSSGinegm0AGe-6" target="M6vPiTraSSGinegm0AGe-8">
          <mxGeometry relative="1" as="geometry" />
        </mxCell>
        <mxCell id="M6vPiTraSSGinegm0AGe-6" value="ВЫВОД&lt;br&gt;a | b" style="shape=parallelogram;perimeter=parallelogramPerimeter;whiteSpace=wrap;html=1;fixedSize=1;fontSize=14;" vertex="1" parent="3HDhF79kHvFXXVwvAc-J-1">
          <mxGeometry x="320" y="440" width="120" height="60" as="geometry" />
        </mxCell>
        <mxCell id="M6vPiTraSSGinegm0AGe-12" style="edgeStyle=orthogonalEdgeStyle;rounded=1;jumpSize=12;orthogonalLoop=1;jettySize=auto;html=1;entryX=0.5;entryY=0;entryDx=0;entryDy=0;targetPerimeterSpacing=8;fontSize=14;" edge="1" parent="3HDhF79kHvFXXVwvAc-J-1" source="M6vPiTraSSGinegm0AGe-8" target="M6vPiTraSSGinegm0AGe-10">
          <mxGeometry relative="1" as="geometry" />
        </mxCell>
        <mxCell id="M6vPiTraSSGinegm0AGe-8" value="ВЫВОД&lt;br&gt;a ^ b" style="shape=parallelogram;perimeter=parallelogramPerimeter;whiteSpace=wrap;html=1;fixedSize=1;fontSize=14;" vertex="1" parent="3HDhF79kHvFXXVwvAc-J-1">
          <mxGeometry x="320" y="530" width="120" height="60" as="geometry" />
        </mxCell>
        <mxCell id="M6vPiTraSSGinegm0AGe-13" style="edgeStyle=orthogonalEdgeStyle;rounded=1;jumpSize=12;orthogonalLoop=1;jettySize=auto;html=1;entryX=0.5;entryY=0;entryDx=0;entryDy=0;targetPerimeterSpacing=8;fontSize=14;" edge="1" parent="3HDhF79kHvFXXVwvAc-J-1" source="M6vPiTraSSGinegm0AGe-10" target="M6vPiTraSSGinegm0AGe-11">
          <mxGeometry relative="1" as="geometry" />
        </mxCell>
        <mxCell id="M6vPiTraSSGinegm0AGe-10" value="ВЫВОД&lt;br&gt;a &amp;gt;&amp;gt; b" style="shape=parallelogram;perimeter=parallelogramPerimeter;whiteSpace=wrap;html=1;fixedSize=1;fontSize=14;" vertex="1" parent="3HDhF79kHvFXXVwvAc-J-1">
          <mxGeometry x="320" y="620" width="120" height="60" as="geometry" />
        </mxCell>
        <mxCell id="M6vPiTraSSGinegm0AGe-15" style="edgeStyle=orthogonalEdgeStyle;rounded=1;jumpSize=12;orthogonalLoop=1;jettySize=auto;html=1;entryX=0.5;entryY=0;entryDx=0;entryDy=0;targetPerimeterSpacing=8;strokeColor=#0000CC;fontSize=14;" edge="1" parent="3HDhF79kHvFXXVwvAc-J-1" source="M6vPiTraSSGinegm0AGe-11" target="M6vPiTraSSGinegm0AGe-14">
          <mxGeometry relative="1" as="geometry" />
        </mxCell>
        <mxCell id="M6vPiTraSSGinegm0AGe-11" value="ВЫВОД&lt;br&gt;a &amp;lt;&amp;lt; b" style="shape=parallelogram;perimeter=parallelogramPerimeter;whiteSpace=wrap;html=1;fixedSize=1;fontSize=14;" vertex="1" parent="3HDhF79kHvFXXVwvAc-J-1">
          <mxGeometry x="320" y="710" width="120" height="60" as="geometry" />
        </mxCell>
        <mxCell id="M6vPiTraSSGinegm0AGe-14" value="КОНЕЦ" style="ellipse;whiteSpace=wrap;html=1;fontSize=14;" vertex="1" parent="3HDhF79kHvFXXVwvAc-J-1">
          <mxGeometry x="320" y="810" width="120" height="70" as="geometry" />
        </mxCell>
      </root>
    </mxGraphModel>
  </diagram>
  <diagram id="6xUXlcxPaijDnru5idpn" name="Home-Task-2">
    <mxGraphModel dx="1422" dy="794" grid="1" gridSize="10" guides="1" tooltips="1" connect="1" arrows="1" fold="1" page="1" pageScale="1" pageWidth="1100" pageHeight="850" math="0" shadow="0">
      <root>
        <mxCell id="4cRcgQ6ch2DhY1ivbwCo-0" />
        <mxCell id="4cRcgQ6ch2DhY1ivbwCo-1" parent="4cRcgQ6ch2DhY1ivbwCo-0" />
        <mxCell id="4cRcgQ6ch2DhY1ivbwCo-5" style="edgeStyle=orthogonalEdgeStyle;rounded=1;jumpSize=12;orthogonalLoop=1;jettySize=auto;html=1;entryX=0.5;entryY=0;entryDx=0;entryDy=0;targetPerimeterSpacing=8;fontSize=14;" edge="1" parent="4cRcgQ6ch2DhY1ivbwCo-1" source="4cRcgQ6ch2DhY1ivbwCo-2" target="4cRcgQ6ch2DhY1ivbwCo-4">
          <mxGeometry relative="1" as="geometry" />
        </mxCell>
        <mxCell id="4cRcgQ6ch2DhY1ivbwCo-2" value="НАЧАЛО" style="ellipse;whiteSpace=wrap;html=1;fontSize=14;" vertex="1" parent="4cRcgQ6ch2DhY1ivbwCo-1">
          <mxGeometry x="450" y="90" width="120" height="70" as="geometry" />
        </mxCell>
        <mxCell id="4cRcgQ6ch2DhY1ivbwCo-3" value="&lt;b&gt;&lt;span lang=&quot;RU&quot; style=&quot;font-size: 13.0pt ; line-height: 107% ; font-family: &amp;#34;helvetica&amp;#34; , sans-serif ; color: #3f5368&quot;&gt;По введенным пользователем координатам двух точек вывести уравнение&lt;br&gt;прямой вида&amp;nbsp;&lt;/span&gt;&lt;span lang=&quot;RU&quot; style=&quot;font-size: 11.5pt ; line-height: 107% ; font-family: &amp;#34;consolas&amp;#34; ; color: #c7254e ; background: #f9f2f4&quot;&gt;y = kx + b&lt;/span&gt;&lt;span lang=&quot;RU&quot; style=&quot;font-size: 13.0pt ; line-height: 107% ; font-family: &amp;#34;helvetica&amp;#34; , sans-serif ; color: #3f5368&quot;&gt;, проходящей через эти точки.&lt;/span&gt;&lt;/b&gt;" style="text;html=1;align=center;verticalAlign=middle;resizable=0;points=[];autosize=1;fontSize=14;" vertex="1" parent="4cRcgQ6ch2DhY1ivbwCo-1">
          <mxGeometry x="215" y="30" width="670" height="40" as="geometry" />
        </mxCell>
        <mxCell id="4cRcgQ6ch2DhY1ivbwCo-8" style="edgeStyle=orthogonalEdgeStyle;rounded=1;jumpSize=12;orthogonalLoop=1;jettySize=auto;html=1;entryX=0.5;entryY=0;entryDx=0;entryDy=0;targetPerimeterSpacing=8;fontSize=14;" edge="1" parent="4cRcgQ6ch2DhY1ivbwCo-1" source="4cRcgQ6ch2DhY1ivbwCo-4" target="4cRcgQ6ch2DhY1ivbwCo-7">
          <mxGeometry relative="1" as="geometry" />
        </mxCell>
        <mxCell id="4cRcgQ6ch2DhY1ivbwCo-4" value="ВВОД - A&lt;br&gt;x1, x1" style="shape=parallelogram;perimeter=parallelogramPerimeter;whiteSpace=wrap;html=1;fixedSize=1;fontSize=14;" vertex="1" parent="4cRcgQ6ch2DhY1ivbwCo-1">
          <mxGeometry x="450" y="190" width="120" height="60" as="geometry" />
        </mxCell>
        <mxCell id="4cRcgQ6ch2DhY1ivbwCo-10" style="edgeStyle=orthogonalEdgeStyle;rounded=1;jumpSize=12;orthogonalLoop=1;jettySize=auto;html=1;entryX=0.5;entryY=0;entryDx=0;entryDy=0;targetPerimeterSpacing=8;fontSize=14;" edge="1" parent="4cRcgQ6ch2DhY1ivbwCo-1" source="4cRcgQ6ch2DhY1ivbwCo-7" target="4cRcgQ6ch2DhY1ivbwCo-9">
          <mxGeometry relative="1" as="geometry" />
        </mxCell>
        <mxCell id="4cRcgQ6ch2DhY1ivbwCo-7" value="ВВОД - B&lt;br&gt;x2, x2" style="shape=parallelogram;perimeter=parallelogramPerimeter;whiteSpace=wrap;html=1;fixedSize=1;fontSize=14;" vertex="1" parent="4cRcgQ6ch2DhY1ivbwCo-1">
          <mxGeometry x="450" y="280" width="120" height="60" as="geometry" />
        </mxCell>
        <mxCell id="4cRcgQ6ch2DhY1ivbwCo-13" style="edgeStyle=orthogonalEdgeStyle;rounded=1;jumpSize=12;orthogonalLoop=1;jettySize=auto;html=1;targetPerimeterSpacing=8;fontSize=14;" edge="1" parent="4cRcgQ6ch2DhY1ivbwCo-1" source="4cRcgQ6ch2DhY1ivbwCo-9">
          <mxGeometry relative="1" as="geometry">
            <mxPoint x="320" y="480" as="targetPoint" />
          </mxGeometry>
        </mxCell>
        <mxCell id="4cRcgQ6ch2DhY1ivbwCo-22" style="edgeStyle=orthogonalEdgeStyle;rounded=1;jumpSize=12;orthogonalLoop=1;jettySize=auto;html=1;targetPerimeterSpacing=8;fontSize=14;entryX=0.5;entryY=0;entryDx=0;entryDy=0;" edge="1" parent="4cRcgQ6ch2DhY1ivbwCo-1" source="4cRcgQ6ch2DhY1ivbwCo-9" target="4cRcgQ6ch2DhY1ivbwCo-23">
          <mxGeometry relative="1" as="geometry">
            <mxPoint x="760" y="670" as="targetPoint" />
          </mxGeometry>
        </mxCell>
        <mxCell id="4cRcgQ6ch2DhY1ivbwCo-9" value="x1 == x2" style="rhombus;whiteSpace=wrap;html=1;" vertex="1" parent="4cRcgQ6ch2DhY1ivbwCo-1">
          <mxGeometry x="470" y="370" width="80" height="80" as="geometry" />
        </mxCell>
        <mxCell id="4cRcgQ6ch2DhY1ivbwCo-11" value="Нет" style="text;html=1;align=center;verticalAlign=middle;resizable=0;points=[];autosize=1;fontSize=14;" vertex="1" parent="4cRcgQ6ch2DhY1ivbwCo-1">
          <mxGeometry x="400" y="360" width="40" height="20" as="geometry" />
        </mxCell>
        <mxCell id="4cRcgQ6ch2DhY1ivbwCo-12" value="Да" style="text;html=1;align=center;verticalAlign=middle;resizable=0;points=[];autosize=1;fontSize=14;" vertex="1" parent="4cRcgQ6ch2DhY1ivbwCo-1">
          <mxGeometry x="605" y="360" width="30" height="20" as="geometry" />
        </mxCell>
        <mxCell id="4cRcgQ6ch2DhY1ivbwCo-15" style="edgeStyle=orthogonalEdgeStyle;rounded=1;jumpSize=12;orthogonalLoop=1;jettySize=auto;html=1;targetPerimeterSpacing=8;fontSize=14;" edge="1" parent="4cRcgQ6ch2DhY1ivbwCo-1" source="4cRcgQ6ch2DhY1ivbwCo-14">
          <mxGeometry relative="1" as="geometry">
            <mxPoint x="320" y="580" as="targetPoint" />
          </mxGeometry>
        </mxCell>
        <mxCell id="4cRcgQ6ch2DhY1ivbwCo-14" value="&lt;font style=&quot;font-size: 12px&quot;&gt;k = (y1 - y2) / (x1 -x2)&lt;/font&gt;" style="rounded=0;whiteSpace=wrap;html=1;fontSize=14;" vertex="1" parent="4cRcgQ6ch2DhY1ivbwCo-1">
          <mxGeometry x="260" y="480" width="120" height="60" as="geometry" />
        </mxCell>
        <mxCell id="4cRcgQ6ch2DhY1ivbwCo-19" style="edgeStyle=orthogonalEdgeStyle;rounded=1;jumpSize=12;orthogonalLoop=1;jettySize=auto;html=1;entryX=0.5;entryY=0;entryDx=0;entryDy=0;targetPerimeterSpacing=8;fontSize=14;" edge="1" parent="4cRcgQ6ch2DhY1ivbwCo-1" source="4cRcgQ6ch2DhY1ivbwCo-16" target="4cRcgQ6ch2DhY1ivbwCo-17">
          <mxGeometry relative="1" as="geometry" />
        </mxCell>
        <mxCell id="4cRcgQ6ch2DhY1ivbwCo-16" value="&lt;font style=&quot;font-size: 12px&quot;&gt;b = y2 - k * x2&lt;/font&gt;" style="rounded=0;whiteSpace=wrap;html=1;fontSize=14;" vertex="1" parent="4cRcgQ6ch2DhY1ivbwCo-1">
          <mxGeometry x="260" y="580" width="120" height="60" as="geometry" />
        </mxCell>
        <mxCell id="4cRcgQ6ch2DhY1ivbwCo-20" style="edgeStyle=orthogonalEdgeStyle;rounded=1;jumpSize=12;orthogonalLoop=1;jettySize=auto;html=1;targetPerimeterSpacing=8;fontSize=14;" edge="1" parent="4cRcgQ6ch2DhY1ivbwCo-1" source="4cRcgQ6ch2DhY1ivbwCo-17">
          <mxGeometry relative="1" as="geometry">
            <mxPoint x="560" y="780" as="targetPoint" />
          </mxGeometry>
        </mxCell>
        <mxCell id="4cRcgQ6ch2DhY1ivbwCo-17" value="ВЫВОД&lt;br&gt;y = kx + b&amp;nbsp;" style="shape=parallelogram;perimeter=parallelogramPerimeter;whiteSpace=wrap;html=1;fixedSize=1;fontSize=14;" vertex="1" parent="4cRcgQ6ch2DhY1ivbwCo-1">
          <mxGeometry x="260" y="670" width="120" height="60" as="geometry" />
        </mxCell>
        <mxCell id="4cRcgQ6ch2DhY1ivbwCo-21" value="КОНЕЦ" style="ellipse;whiteSpace=wrap;html=1;fontSize=14;" vertex="1" parent="4cRcgQ6ch2DhY1ivbwCo-1">
          <mxGeometry x="515" y="780" width="90" height="60" as="geometry" />
        </mxCell>
        <mxCell id="4cRcgQ6ch2DhY1ivbwCo-24" style="edgeStyle=orthogonalEdgeStyle;rounded=1;jumpSize=12;orthogonalLoop=1;jettySize=auto;html=1;targetPerimeterSpacing=8;fontSize=14;entryX=0.5;entryY=0;entryDx=0;entryDy=0;" edge="1" parent="4cRcgQ6ch2DhY1ivbwCo-1" source="4cRcgQ6ch2DhY1ivbwCo-23" target="4cRcgQ6ch2DhY1ivbwCo-21">
          <mxGeometry relative="1" as="geometry">
            <mxPoint x="750" y="810" as="targetPoint" />
            <Array as="points">
              <mxPoint x="770" y="755" />
              <mxPoint x="560" y="755" />
            </Array>
          </mxGeometry>
        </mxCell>
        <mxCell id="4cRcgQ6ch2DhY1ivbwCo-23" value="ВЫВОД&lt;br&gt;&quot;x =&quot;x1" style="shape=parallelogram;perimeter=parallelogramPerimeter;whiteSpace=wrap;html=1;fixedSize=1;" vertex="1" parent="4cRcgQ6ch2DhY1ivbwCo-1">
          <mxGeometry x="710" y="640" width="120" height="60" as="geometry" />
        </mxCell>
      </root>
    </mxGraphModel>
  </diagram>
</mxfile>
